<?xml version="1.0" standalone="no"?>
<!DOCTYPE svg PUBLIC "-//W3C//DTD SVG 1.1//EN" "http://www.w3.org/Graphics/SVG/1.1/DTD/svg11.dtd" >
<svg xmlns="http://www.w3.org/2000/svg">
<metadata>Generated by IcoMoon</metadata>
<defs>
<font id="icomoon" horiz-adv-x="1024">
<font-face units-per-em="1024" ascent="960" descent="-64" />
<missing-glyph horiz-adv-x="1024" />
<glyph unicode="&#x20;" horiz-adv-x="512" d="" />
<glyph unicode="&#xe900;" glyph-name="car" d="M1016.893 583.673c-2.434 7.086-11.061 12.597-18.264 12.597-31.191 0-62.377 0-93.568 0-7.2 0-15.83-5.511-18.267-12.597-2.382-6.936-4.162-13.124-5.345-18.944l-62.502 172.915c-10.309 28.513-37.61 47.67-67.927 47.67h-478.033c-30.319 0-57.616-19.157-67.93-47.675l-62.504-172.93c-1.186 5.825-2.966 12.021-5.35 18.965-2.434 7.086-11.064 12.597-18.264 12.597-31.189 0-62.377 0-93.568 0-7.2 0-15.83-5.511-18.264-12.597-9.476-27.59-9.471-43.384 0.003-70.976 2.434-7.086 11.064-12.597 18.264-12.597 31.191 0 62.38 0 93.568 0 0.088 0 0.182 0.023 0.272 0.026l-1.412-3.91c-19.079-6.339-32.854-24.3-32.854-45.509v-316.96c0-12.737 10.322-23.059 23.059-23.059h116.054c12.735 0 23.059 10.322 23.059 23.059v112.253h529.763v-112.253c0-12.737 10.324-23.059 23.059-23.059h116.054c12.737 0 23.059 10.322 23.059 23.059v316.96c0 21.204-13.77 39.162-32.841 45.506l-1.414 3.913c0.086-0.003 0.176-0.023 0.262-0.023 31.191 0 62.377 0 93.568 0 7.203 0 15.83 5.511 18.264 12.597 9.473 27.59 9.468 43.384-0.003 70.973zM281.817 700.456h460.308l72.932-201.77h-606.17l72.93 201.77zM294.656 356.544h-97.089c-20.83 0-37.714 16.884-37.714 37.714 0 20.828 16.881 37.714 37.714 37.714h97.089c20.828 0 37.714-16.884 37.714-37.714 0.003-20.83-16.886-37.714-37.714-37.714zM826.43 356.544h-97.089c-20.828 0-37.714 16.884-37.714 37.714 0 20.828 16.886 37.714 37.714 37.714h97.089c20.83 0 37.714-16.884 37.714-37.714s-16.884-37.714-37.714-37.714z" />
<glyph unicode="&#xe901;" glyph-name="car-1" d="M984.834 549.744l-22.318 23.631-78.332 211.145c-13.347 35.665-47.48 59.296-85.552 59.515h-559.48c-38.072 0-72.205-23.85-85.552-59.515l-77.238-208.52-32.164-29.757c-28.007-23.85-44.198-58.858-44.198-95.617v-307.638c0.219-50.325 41.135-91.022 91.46-91.022h57.764c50.325 0 91.241 40.697 91.46 91.022v44.636h542.632v-44.636c0.219-50.325 41.135-91.022 91.46-91.022h57.764c50.325 0 91.241 40.697 91.46 91.022v315.733c-0.219 34.352-14.222 67.173-39.166 91.022zM194.735 769.641c7.002 18.598 24.725 30.632 44.417 30.632h559.699c19.692 0 37.415-12.253 44.417-30.632l68.267-183.795h-50.981c-12.034 82.051-88.397 138.721-170.448 126.468-65.422-9.627-116.841-61.046-126.468-126.468h-437.169l68.267 183.795zM815.918 585.846h-208.082c12.034 57.545 68.485 94.304 126.031 82.27 41.135-8.752 73.299-40.916 82.051-82.27zM196.923 142.988c-0.219-26.256-21.443-47.262-47.699-47.262h-57.764c-26.256 0-47.48 21.005-47.699 47.262v57.326c13.128-8.533 30.414-12.691 47.699-12.691h105.463v-44.636zM980.239 142.988c-0.219-26.256-21.443-47.262-47.699-47.262h-57.764c-26.256 0-47.48 21.224-47.699 47.262v44.636h105.463c17.285 0 34.571 4.157 47.699 12.691v-57.326zM932.54 231.385h-841.080c-26.038-0.219-47.48 20.568-47.699 46.824v172.417c0 24.068 10.721 47.043 29.101 62.578 0.219 0.219 0.656 0.656 0.875 0.875l29.757 28.007h828.609l21.005-22.537c0.219-0.438 0.875-0.656 1.094-1.094 16.41-15.535 25.819-37.197 25.819-59.733v-180.513h0.219c-0.219-26.038-21.662-47.043-47.699-46.824zM288.821 454.564h-164.103c-12.034 0-21.88-9.846-21.88-21.88v-113.778c0-12.034 9.846-21.88 21.88-21.88h164.103c12.034 0 21.88 9.846 21.88 21.88v113.778c0 12.034-9.846 21.88-21.88 21.88zM266.94 340.786h-120.342v70.017h120.342v-70.017zM899.282 454.564h-164.103c-12.034 0-21.88-9.846-21.88-21.88v-113.778c0-12.034 9.846-21.88 21.88-21.88h164.103c12.034 0 21.88 9.846 21.88 21.88v113.778c0 12.034-9.846 21.88-21.88 21.88zM877.402 340.786h-120.342v70.017h120.342v-70.017zM617.682 362.667h-211.364c-12.034 0-21.88-9.846-21.88-21.88s9.846-21.88 21.88-21.88h211.364c12.034 0 21.88 9.846 21.88 21.88s-9.846 21.88-21.88 21.88zM617.682 430.496h-211.364c-12.034 0-21.88-9.846-21.88-21.88s9.846-21.88 21.88-21.88h211.364c12.034 0 21.88 9.846 21.88 21.88s-9.846 21.88-21.88 21.88z" />
<glyph unicode="&#xe902;" glyph-name="facebook-app-symbol" d="M591.302-64v467.060h156.71l23.511 182.076h-180.221v116.229c0 52.699 14.574 88.612 90.229 88.612l96.335 0.040v162.855c-16.66 2.165-73.847 7.129-140.407 7.129-138.987 0-234.141-84.837-234.141-240.603v-134.261h-157.185v-182.076h157.185v-467.060h187.983z" />
<glyph unicode="&#xe903;" glyph-name="twitter" d="M1024 765.504c-38.080-16.704-78.656-27.776-120.96-33.152 43.52 25.984 76.736 66.816 92.352 116.032-40.576-24.192-85.376-41.28-133.12-50.816-38.528 41.024-93.44 66.432-153.344 66.432-116.224 0-209.792-94.336-209.792-209.984 0-16.64 1.408-32.64 4.864-47.872-174.528 8.512-328.96 92.16-432.704 219.584-18.112-31.424-28.736-67.392-28.736-106.112 0-72.704 37.44-137.152 93.248-174.464-33.728 0.64-66.816 10.432-94.848 25.856 0-0.64 0-1.472 0-2.304 0-102.016 72.768-186.752 168.192-206.272-17.088-4.672-35.712-6.912-55.040-6.912-13.44 0-27.008 0.768-39.744 3.584 27.2-83.136 104.384-144.256 196.16-146.24-71.424-55.872-162.112-89.536-260.288-89.536-17.216 0-33.728 0.768-50.24 2.88 92.992-59.968 203.2-94.208 322.048-94.208 386.304 0 597.504 320 597.504 597.376 0 9.28-0.32 18.24-0.768 27.136 41.664 29.568 76.672 66.496 105.216 108.992z" />
<glyph unicode="&#xe904;" glyph-name="instagram" d="M767.994 960h-511.988c-140.784 0-255.994-115.21-255.994-255.994v-512.012c0-140.747 115.21-255.994 255.994-255.994h511.988c140.784 0 255.994 115.247 255.994 255.994v512.012c0 140.784-115.21 255.994-255.994 255.994zM938.652 191.994c0-94.078-76.528-170.658-170.658-170.658h-511.988c-94.090 0-170.658 76.581-170.658 170.658v512.012c0 94.103 76.568 170.658 170.658 170.658h511.988c94.13 0 170.658-76.556 170.658-170.658v-512.012zM853.367 725.343c0-35.345-28.653-63.998-63.998-63.998s-63.998 28.653-63.998 63.998c0 35.345 28.653 63.998 63.998 63.998s63.998-28.653 63.998-63.998zM512 704.006c-141.412 0-255.994-114.595-255.994-255.994 0-141.347 114.582-256.019 255.994-256.019 141.372 0 255.994 114.672 255.994 256.019 0 141.399-114.622 255.994-255.994 255.994zM512 277.329c-94.245 0-170.658 76.413-170.658 170.683s76.413 170.658 170.658 170.658 170.658-76.388 170.658-170.658-76.413-170.683-170.658-170.683z" />
<glyph unicode="&#xe905;" glyph-name="youtube" d="M850.845 82.226h-681.814c-80.719 0-148.696 60.445-158.11 140.633-14.563 123.633-14.563 324.876 0 448.548 9.414 80.156 77.383 140.594 158.11 140.594h682.564c80.453 0 148.391-60.203 158.063-140.055l5.484-45.344c11.352-93.695 11.859-246.172 1.156-339.876l-7.266-63.391c-9.203-80.43-77.195-141.11-158.188-141.11zM169.032 742.501c-45.477 0-83.774-34.078-89.086-79.211-14.031-119.211-14.031-313.133 0-432.313 5.305-45.172 43.609-79.242 89.086-79.242h681.822c45.625 0 83.938 34.172 89.117 79.508l7.266 63.399c10.211 89.188 9.719 234.368-1.086 323.618l-5.484 45.344c-5.453 44.961-43.75 78.899-89.070 78.899zM649.126 447.117l-242.688 121.625v-243.258zM406.446 290.734c-6.344 0-12.672 1.727-18.258 5.195-10.242 6.305-16.492 17.508-16.492 29.555v243.258c0 12.047 6.25 23.25 16.492 29.563 10.266 6.344 23.063 6.922 33.836 1.492l242.68-121.625c11.758-5.875 19.172-17.883 19.172-31.055 0-13.164-7.414-25.18-19.172-31.047l-242.68-121.633c-4.922-2.484-10.25-3.703-15.578-3.703zM441.196 512.445v-130.656l130.367 65.328z" />
<glyph unicode="&#xe906;" glyph-name="search" d="M926.293 94.293l-120.747 120.32c56.341 69.167 90.469 158.377 90.469 255.558 0 224.331-181.856 406.187-406.187 406.187s-406.187-181.856-406.187-406.187c0-224.331 181.856-406.187 406.187-406.187 97.181 0 186.392 34.128 256.299 91.054l-0.741-0.585 120.32-120.747c7.733-7.795 18.45-12.621 30.293-12.621s22.56 4.826 30.291 12.618l0.003 0.003c7.795 7.733 12.621 18.45 12.621 30.293s-4.826 22.56-12.618 30.291l-0.003 0.003zM170.667 469.333c0 176.731 143.269 320 320 320s320-143.269 320-320c0-176.731-143.269-320-320-320v0c-176.731 0-320 143.269-320 320v0z" />
<glyph unicode="&#xe907;" glyph-name="cart" d="M775.577 198.643c-65.766 0.063-119.132-53.2-119.197-118.966s53.2-119.132 118.966-119.197c65.766-0.063 119.132 53.2 119.197 118.966 0 0.038 0 0.076 0 0.114-0.063 65.697-53.271 118.954-118.966 119.082zM986.785 768.865c-2.848 0.552-5.744 0.832-8.646 0.837h-725.048l-11.483 76.823c-7.155 51.020-50.795 88.979-102.315 88.995h-93.359c-25.368 0-45.933-20.564-45.933-45.933s20.564-45.933 45.933-45.933h93.474c5.84 0.043 10.783-4.306 11.483-10.106l70.736-484.82c9.698-61.606 62.689-107.054 125.053-107.254h477.816c60.042-0.078 111.84 42.12 123.904 100.938l74.755 372.63c4.82 24.906-11.463 49.003-36.369 53.823zM483.858 84.661c-2.797 63.837-55.481 114.090-119.381 113.868v0c-65.712-2.655-116.83-58.080-114.175-123.792 2.548-63.052 53.839-113.168 116.931-114.256h2.871c65.703 2.88 116.631 58.477 113.753 124.18z" />
<glyph unicode="&#xe908;" glyph-name="add" d="M621.714 539.429c-10.098 0-18.286 8.187-18.286 18.286v402.286h-182.857v-402.286c0-10.098-8.187-18.286-18.286-18.286h-402.286v-182.857h402.286c10.098 0 18.286-8.187 18.286-18.286v-402.286h182.857v402.286c0 10.098 8.187 18.286 18.286 18.286h402.286v182.857z" />
<glyph unicode="&#xe909;" glyph-name="plus" d="M544 832v-352h352v-64h-352v-352h-64v352h-352v64h352v352z" />
<glyph unicode="&#xe90a;" glyph-name="minus" d="M880 480h-736v-64h736z" />
<glyph unicode="&#xe90b;" glyph-name="up-right-arrow" d="M853.76 836.256h-592.16c-17.673 0-32-14.327-32-32s14.327-32 32-32v0h529.408l-656.608-656.64c-6.36-5.867-10.329-14.243-10.329-23.545 0-17.673 14.327-32 32-32 9.303 0 17.678 3.97 23.525 10.307l0.020 0.022 656.64 656.64v-529.44c0-17.673 14.327-32 32-32s32 14.327 32 32v0 592.128c-0.036 25.671-20.828 46.473-46.491 46.528h-0.005z" />
<glyph unicode="&#xe90c;" glyph-name="right-arrow" d="M233.372 726.628c12.497 12.497 32.758 12.497 45.255 0l512-512c12.496-12.496 12.496-32.758 0-45.254s-32.758-12.496-45.254 0l-512 512c-12.497 12.497-12.497 32.758 0 45.255zM768 640c17.674 0 32-14.326 32-32v-416c0-17.674-14.326-32-32-32h-416c-17.674 0-32 14.326-32 32s14.326 32 32 32h384v384c0 17.674 14.326 32 32 32z" />
<glyph unicode="&#xe90d;" glyph-name="play" d="M837.44 564.16l-549.44 317.44c-14.828 8.917-32.696 14.249-51.798 14.4h-0.042c-59.735 0-108.16-48.425-108.16-108.16v0-681.28c0.012-58.843 47.716-106.54 106.56-106.54 20.996 0 40.574 6.072 57.073 16.557l-0.433-0.257 550.080 347.52c33.149 20.989 54.837 57.466 54.837 99.009 0 43.117-23.363 80.777-58.12 101.012l-0.557 0.299z" />
<glyph unicode="&#xe90e;" glyph-name="checked" d="M298.667 64h426.667c94.257 0 170.667 76.41 170.667 170.667v0 206.933c0 23.564-19.103 42.667-42.667 42.667s-42.667-19.103-42.667-42.667v0-206.933c0-47.128-38.205-85.333-85.333-85.333v0h-426.667c-47.128 0-85.333 38.205-85.333 85.333v0 426.667c0 47.128 38.205 85.333 85.333 85.333v0h213.333c23.564 0 42.667 19.103 42.667 42.667s-19.103 42.667-42.667 42.667v0h-213.333c-94.257 0-170.667-76.41-170.667-170.667v0-426.667c0-94.257 76.41-170.667 170.667-170.667v0zM865.707 776.96l-353.707-354.133-140.373 140.8c-7.753 7.753-18.463 12.548-30.293 12.548-23.661 0-42.841-19.181-42.841-42.841 0-11.83 4.795-22.541 12.548-30.293l170.667-170.667c7.733-7.795 18.45-12.621 30.293-12.621s22.56 4.826 30.291 12.618l384.003 384.003c7.753 7.753 12.548 18.463 12.548 30.293 0 23.661-19.181 42.841-42.841 42.841-11.83 0-22.541-4.795-30.293-12.548v0z" />
<glyph unicode="&#xe90f;" glyph-name="share" d="M812 296c-59.282 0-111.522-29.162-144.334-73.51l-283.686 145.262c4.71 16.054 8.020 32.692 8.020 50.248 0 23.812-4.882 46.45-13.316 67.272l296.89 178.656c33.040-38.776 81.604-63.928 136.426-63.928 99.258 0 180 80.742 180 180s-80.742 180-180 180c-99.258 0-180-80.742-180-180 0-22.874 4.71-44.572 12.524-64.716l-297.774-179.18c-33.012 37.624-80.876 61.896-134.75 61.896-99.258 0-180-80.742-180-180s80.742-180 180-180c60.26 0 113.382 30.018 146.070 75.612l282.752-144.79c-5.208-16.812-8.822-34.322-8.822-52.822 0-99.258 80.742-180 180-180s180 80.742 180 180c0 99.258-80.742 180-180 180z" />
<glyph unicode="&#xe910;" glyph-name="up-arrow-1" d="M512 640c8.184 0 16.376-3.128 22.624-9.376l320-320c12.504-12.504 12.504-32.752 0-45.248s-32.752-12.504-45.248 0l-297.376 297.376-297.376-297.376c-12.504-12.504-32.752-12.504-45.248 0s-12.504 32.752 0 45.248l320 320c6.248 6.248 14.44 9.376 22.624 9.376z" />
<glyph unicode="&#xe911;" glyph-name="down-arrow-1" d="M512 256c-8.184 0-16.376 3.128-22.624 9.376l-320 320c-12.504 12.504-12.504 32.752 0 45.248s32.752 12.504 45.248 0l297.376-297.376 297.376 297.376c12.504 12.504 32.752 12.504 45.248 0s12.504-32.752 0-45.248l-320-320c-6.248-6.248-14.44-9.376-22.624-9.376z" />
<glyph unicode="&#xe912;" glyph-name="send" d="M1023.306 856.651c4.992 23.238-17.79 42.832-40.014 34.352l-963.991-367.996c-11.602-4.43-19.276-15.55-19.3-27.968-0.024-12.42 7.606-23.57 19.192-28.044l270.803-104.589v-329.423c0-13.896 9.542-25.972 23.062-29.186 13.43-3.194 27.434 3.196 33.73 15.686l112.001 222.254 273.325-202.844c16.626-12.34 40.524-4.492 46.574 15.338 255.196 836.706 244.164 800.318 244.618 802.42zM785.346 751.216l-469.601-334.435-202.054 78.035zM349.997 367.516l409.332 291.511c-352.225-371.576-333.829-352.019-335.365-354.087-2.282-3.070 3.97 8.896-73.967-145.763zM733.709 112.426l-240.59 178.55 435.018 458.92z" />
<glyph unicode="&#xe913;" glyph-name="phone" d="M582.882 959.999c-11.047 0-20-8.953-20-20s8.953-20 20-20c221.179 0 401.117-179.945 401.117-401.117 0-11.047 8.961-20 20-20 11.047 0 20 8.953 20 20 0 243.226-197.883 441.117-441.117 441.117zM883.686 498.875c11.047 0 20 8.961 20 20 0 176.898-143.914 320.812-320.804 320.812-11.047 0-20-8.961-20-20 0-11.047 8.953-20 20-20 154.836 0 280.804-125.969 280.804-280.812 0-11.039 8.953-20 20-20zM743.351 518.875c0-11.039 8.953-20 20-20s20 8.961 20 20c0 110.539-89.93 200.468-200.468 200.468-11.047 0-20-8.953-20-19.992 0-11.047 8.953-20 20-20 88.484 0 160.469-71.984 160.469-160.476zM562.882 579.031c0-11.039 8.953-19.992 20-19.992 22.141 0 40.156-18.016 40.156-40.164 0-11.039 8.953-20 20-20 11.039 0 20 8.961 20 20 0 44.203-35.961 80.156-80.156 80.156-11.047 0-20-8.953-20-20zM374.867 310.641c0-11.047-8.953-20-20-20s-20 8.953-20 20c0 11.039 8.953 20 20 20s20-8.961 20-20zM548.062-39.718c91.070-44.633 200.633-26.062 272.648 45.953l41.352 41.352c22.453 22.43 22.461 58.766 0.008 81.211l-159.781 159.765c-22.414 22.445-58.758 22.477-81.195 0.008l-67.891-67.898c-13.297-13.297-33.82-16.008-48.789-6.453-24.406 15.602-48.148 32.805-70.562 51.133-8.555 6.992-21.148 5.727-28.141-2.82-6.992-8.555-5.727-21.156 2.82-28.141 23.617-19.312 48.625-37.437 74.351-53.875 30.664-19.586 72.133-14.594 98.601 11.875l67.906 67.906c6.789 6.797 17.789 6.812 24.609-0.008l159.789-159.773c6.805-6.812 6.82-17.828 0-24.633l-41.359-41.367c-59.992-59.992-151.117-75.391-226.765-38.32-277.132 135.898-427.913 351.382-505.601 508.226-37.164 75.008-21.734 165.789 38.398 225.906l40.453 40.445c6.781 6.797 17.789 6.82 24.602-0.008l159.804-159.797c6.766-6.758 6.836-17.773-0.016-24.609l-67.891-67.898c-26.469-26.469-31.461-67.937-11.875-98.609 11.539-18.055 23.977-35.867 36.977-52.937 6.687-8.789 19.234-10.484 28.023-3.797s10.492 19.234 3.797 28.031c-12.328 16.195-24.141 33.102-35.094 50.234-9.555 14.977-6.844 35.5 6.453 48.797l67.883 67.883c22.445 22.414 22.469 58.766 0.016 81.195l-159.789 159.781c-22.406 22.445-58.758 22.477-81.187 0.008l-40.437-40.437c-72.281-72.258-90.75-181.547-45.961-271.945 80.445-162.398 236.617-385.539 523.843-526.382z" />
<glyph unicode="&#xe914;" glyph-name="prev1" d="M55.168 417.835l298.667-298.667c7.665-7.41 18.12-11.977 29.641-11.977 23.564 0 42.667 19.103 42.667 42.667 0 11.521-4.567 21.976-11.989 29.653l-225.823 225.823h750.336c23.564 0 42.667 19.103 42.667 42.667s-19.103 42.667-42.667 42.667v0h-750.336l225.835 225.835c8.036 7.769 13.026 18.647 13.026 30.69 0 23.564-19.103 42.667-42.667 42.667-12.043 0-22.92-4.989-30.678-13.014l-298.679-298.679c-7.718-7.721-12.492-18.386-12.492-30.165s4.774-22.445 12.492-30.165v0z" />
<glyph unicode="&#xe915;" glyph-name="next" d="M968.832 478.165l-298.667 298.667c-7.665 7.41-18.12 11.977-29.641 11.977-23.564 0-42.667-19.103-42.667-42.667 0-11.521 4.567-21.976 11.989-29.653l225.823-225.823h-750.336c-23.564 0-42.667-19.103-42.667-42.667s19.103-42.667 42.667-42.667v0h750.336l-225.835-225.835c-8.036-7.769-13.026-18.647-13.026-30.69 0-23.564 19.103-42.667 42.667-42.667 12.043 0 22.92 4.989 30.678 13.014l298.679 298.679c7.718 7.721 12.492 18.386 12.492 30.165s-4.774 22.445-12.492 30.165v0z" />
<glyph unicode="&#xe916;" glyph-name="reply" d="M992 21.333c-11.52 0-22.357 6.229-28.075 16.683l-0.896 1.621c-95.701 172.843-278.059 280.363-475.861 280.363h-60.501v-181.333c0-12.843-7.723-24.448-19.541-29.483-11.733-4.949-25.557-2.475-34.731 6.528l-362.667 352c-6.229 6.016-9.728 14.293-9.728 22.955s3.499 16.939 9.728 22.955l362.667 352c9.216 8.96 22.997 11.52 34.731 6.528 11.819-5.035 19.541-16.64 19.541-29.483v-181.419c330.368-5.717 597.333-276.224 597.333-607.915 0-14.635-9.899-27.392-24.064-31.019-2.645-0.683-5.291-0.981-7.936-0.981zM394.667 384h92.501c178.176 0 345.131-78.037 459.264-209.536-55.211 241.877-272.085 422.869-530.432 422.869h-21.333c-17.664 0-32 14.336-32 32v137.685l-284.715-276.352 284.715-276.352v137.685c0 17.664 14.336 32 32 32z" />
<glyph unicode="&#xe917;" glyph-name="pdf" d="M889.75 740.416l-213.334 213.334c-4 4-9.416 6.25-15.084 6.25h-448c-47.062 0-85.332-38.27-85.332-85.334v-853.334c0-47.062 38.27-85.332 85.334-85.332h597.334c47.062 0 85.332 38.27 85.332 85.334v704c0 5.666-2.25 11.082-6.25 15.082zM682.666 887.166l140.5-140.5h-97.834c-23.52 0-42.666 19.146-42.666 42.666v97.834zM853.334 21.334c0-23.52-19.146-42.666-42.666-42.666h-597.334c-23.52 0-42.666 19.146-42.666 42.666v853.332c0 23.52 19.146 42.666 42.666 42.666h426.666v-128c0-47.062 38.27-85.332 85.334-85.332h128v-682.666zM620.77 333.73c-19.75 15.542-38.52 31.52-51.020 44.020-16.25 16.25-30.73 32-43.312 47 19.626 60.646 28.23 91.916 28.23 108.584 0 70.812-25.584 85.334-64 85.334-29.188 0-64-15.166-64-87.376 0-31.834 17.438-70.48 52-115.396-8.458-25.812-18.396-55.584-29.562-89.146-5.376-16.104-11.208-31.020-17.376-44.812-5.020-2.23-9.896-4.5-14.604-6.854-16.958-8.48-33.062-16.104-48-23.188-68.126-32.25-113.126-53.584-113.126-95.708 0-30.584 33.23-49.52 64-49.52 39.666 0 99.562 52.98 143.312 142.23 45.416 17.916 101.876 31.188 146.438 39.5 35.708-27.458 75.146-53.73 94.25-53.73 52.896 0 64 30.584 64 56.23 0 50.438-57.626 50.438-85.334 50.438-8.604-0.002-31.686-2.544-61.896-7.606zM320 149.334c-12.188 0-20.438 5.75-21.334 6.854 0 15.126 45.104 36.5 88.73 57.166 2.77 1.312 5.584 2.626 8.438 3.98-32.042-46.46-63.73-68-75.834-68zM469.334 531.292c0 44.708 13.876 44.708 21.334 44.708 15.084 0 21.334 0 21.334-42.666 0-9-6-31.5-16.98-66.626-16.752 25.792-25.688 47.896-25.688 64.584zM485.688 302c1.334 3.708 2.626 7.458 3.876 11.25 7.916 23.75 15.042 45.084 21.396 64.292 8.854-9.75 18.396-19.73 28.626-29.958 4-4 13.916-13 27.126-24.27-26.296-5.73-54.274-12.834-81.024-21.314zM725.334 290.896c0-9.584 0-13.562-19.792-13.688-5.812 1.25-19.25 9.166-35.834 20.458 6.020 0.666 10.458 1 12.958 1 31.522 0 40.46-3.082 42.668-7.77z" />
<glyph unicode="&#xe918;" glyph-name="file" d="M552.96 960h-409.6c-11.304 0-20.48-9.176-20.48-20.48v-983.040c0-11.304 9.176-20.48 20.48-20.48h737.28c11.304 0 20.48 9.176 20.48 20.48v655.36c0 94.372-253.788 348.16-348.16 348.16zM860.16-23.040h-696.32v942.080h389.12c71.762 0 307.2-235.438 307.2-307.2v-634.88zM868.352 673.28h-253.952v253.952c0 11.346-9.176 20.48-20.48 20.48-11.306 0-20.48-9.176-20.48-20.48v-274.432c0-11.306 9.176-20.48 20.48-20.48h274.432c11.346 0 20.48 9.174 20.48 20.48 0 11.304-9.176 20.48-20.48 20.48z" />
<glyph unicode="&#xe919;" glyph-name="checked-1" d="M512 960c-282.306 0-512-229.694-512-512s229.694-512 512-512 512 229.694 512 512-229.694 512-512 512zM798.155 582.737l-327.218-324.652c-19.248-19.248-50.045-20.531-70.576-1.283l-173.233 157.835c-20.531 19.248-21.815 51.328-3.85 71.86 19.248 20.531 51.328 21.815 71.86 2.566l137.303-125.754 292.571 292.571c20.531 20.531 52.612 20.531 73.143 0s20.531-52.612 0-73.143z" />
<glyph unicode="&#xe91a;" glyph-name="right-chevron" d="M271.941 959.996l511.994-511.994-511.994-512.002-32.457 32.448 479.554 479.554-479.554 479.546z" />
<glyph unicode="&#xe91b;" glyph-name="left-chevron" d="M752.059-63.996l-511.994 511.994 511.994 512.002 32.457-32.448-479.554-479.554 479.554-479.546z" />
<glyph unicode="&#xe91c;" glyph-name="search-1" d="M466.752 877.598c-211.572 0-383.917-172.345-383.917-383.918 0-211.571 172.345-384.25 383.917-384.25 90.369 0 173.48 31.668 239.167 84.25l159.917-159.833c7.668-7.36 18.1-11.892 29.59-11.892 23.616 0 42.76 19.145 42.76 42.76 0 11.469-4.515 21.884-11.866 29.563l0.015-0.016-159.917 159.917c52.626 65.788 84.333 149.027 84.333 239.5 0 211.573-172.428 383.918-384 383.918zM466.752 792.264c165.454 0 298.583-133.13 298.583-298.584s-133.129-298.916-298.583-298.916-298.583 133.462-298.583 298.916 133.129 298.584 298.583 298.584z" />
<glyph unicode="&#xe91d;" glyph-name="market" d="M213.333 629.333c-5.891 0-10.667-4.776-10.667-10.667v-554.667c0-5.892 4.776-10.667 10.667-10.667h597.333c5.892 0 10.667 4.774 10.667 10.667v554.667c0 5.891-4.774 10.667-10.667 10.667zM138.667 618.667c0 41.237 33.429 74.667 74.667 74.667h597.333c41.237 0 74.667-33.429 74.667-74.667v-554.667c0-41.237-33.429-74.667-74.667-74.667h-597.333c-41.237 0-74.667 33.429-74.667 74.667zM512 842.667c-64.802 0-117.333-52.532-117.333-117.333v-149.333c0-17.673-14.327-32-32-32s-32 14.327-32 32v149.333c0 100.148 81.186 181.333 181.333 181.333s181.333-81.186 181.333-181.333v-149.333c0-17.673-14.327-32-32-32s-32 14.327-32 32v149.333c0 64.801-52.531 117.333-117.333 117.333z" />
<glyph unicode="&#xe91e;" glyph-name="investment" d="M901.12 166.4h-46.080v629.76c0 8.483-6.877 15.36-15.36 15.36v0h-143.36c-8.483 0-15.36-6.877-15.36-15.36v0-629.76h-81.92v394.24c0 8.483-6.877 15.36-15.36 15.36v0h-143.36c-8.483 0-15.36-6.877-15.36-15.36v0-394.24h-81.92v168.96c0 8.483-6.877 15.36-15.36 15.36v0h-143.36c-8.483 0-15.36-6.877-15.36-15.36v0-168.96h-46.080c-8.483 0-15.36-6.877-15.36-15.36s6.877-15.36 15.36-15.36v0h778.24c8.483 0 15.36 6.877 15.36 15.36s-6.877 15.36-15.36 15.36v0zM711.68 780.8h112.64v-614.4h-112.64zM455.68 545.28h112.64v-378.88h-112.64zM199.68 320h112.64v-153.6h-112.64zM133.12 453.12c4.24 0.004 8.077 1.725 10.854 4.505v0l424.346 424.346v-65.331c0-8.483 6.877-15.36 15.36-15.36s15.36 6.877 15.36 15.36v0 102.4c-0.017 2.034-0.429 3.967-1.164 5.733l0.037-0.101c-1.594 3.824-4.573 6.803-8.295 8.359l-0.101 0.038c-1.713 0.788-3.711 1.273-5.816 1.331h-102.421c-8.483 0-15.36-6.877-15.36-15.36s6.877-15.36 15.36-15.36h65.331l-424.346-424.346c-2.776-2.779-4.492-6.616-4.492-10.854 0-8.478 6.869-15.352 15.346-15.36h0.001z" />
<glyph unicode="&#xe91f;" glyph-name="protection" d="M982.326 790.454c-5.77 14.401-18.957 23.967-34.422 24.963-77.962 5.028-151.333 18.125-218.070 38.934-7.91 2.472-16.319-1.948-18.785-9.856-2.464-7.91 1.948-16.319 9.856-18.785 69.009-21.515 144.733-35.050 225.069-40.23 5.586-0.36 7.806-4.442 8.504-6.18 0.704-1.756 1.924-6.288-1.912-10.45-22.393-24.303-33.748-52.924-33.748-85.066 0-5.794 0.214-13.285 0.46-21.957 1.764-61.769 5.434-190.303-43.746-327.293-60.743-169.204-181.799-292.952-359.811-367.807-2.364-0.994-5.076-0.996-7.444 0-178.008 74.854-299.066 198.603-359.811 367.807-49.18 136.99-45.51 265.524-43.746 327.293 0.248 8.672 0.462 16.163 0.462 21.957 0 32.144-11.355 60.765-33.748 85.066-3.834 4.162-2.614 8.694-1.912 10.45 0.696 1.738 2.918 5.82 8.504 6.18 246.178 15.871 381.136 104.765 427.73 142.245 3.676 2.958 8.81 2.956 12.485 0 20.903-16.815 66.765-49.458 139.071-79.154 7.664-3.152 16.427 0.512 19.573 8.176 3.148 7.664-0.514 16.425-8.176 19.573-68.809 28.261-112.029 58.983-131.666 74.78-14.749 11.863-35.344 11.861-50.090 0-44.372-35.692-173.232-120.366-410.857-135.686-15.465-0.996-28.655-10.562-34.422-24.963-5.782-14.437-2.832-30.503 7.7-41.932 17.125-18.585 25.811-40.366 25.811-64.737 0-5.366-0.208-12.657-0.45-21.101-1.816-63.607-5.596-195.965 45.498-338.284 63.699-177.438 190.345-307.078 376.414-385.322 4.878-2.052 10.116-3.080 15.353-3.080s10.474 1.026 15.351 3.078c186.071 78.244 312.715 207.886 376.416 385.322 51.094 142.321 47.314 274.677 45.498 338.284-0.24 8.444-0.45 15.735-0.45 21.101 0 24.371 8.684 46.152 25.811 64.737 10.532 11.433 13.481 27.501 7.7 41.936zM867.551 735.063c-3.926 5.5-10.010 9.224-16.689 10.214-158.071 23.453-263.994 75.728-325.019 115.453-8.33 5.42-19.095 5.366-27.423-0.138-106.619-70.439-235.801-101.419-325.401-115.005-6.686-1.014-12.765-4.756-16.675-10.268-3.936-5.544-5.416-12.269-4.164-18.935 1.99-10.598 2.998-21.565 2.998-32.598 0-6.49-0.222-14.285-0.482-23.389-1.676-58.705-5.162-180.866 40.826-308.968 25.203-70.205 62.121-132.564 109.727-185.349 51.836-57.473 117.838-105.129 196.175-141.643 3.36-1.566 6.966-2.348 10.574-2.348s7.212 0.784 10.574 2.348c73.205 34.124 135.756 78.064 185.919 130.602 5.72 5.992 5.5 15.485-0.49 21.207-5.994 5.722-15.485 5.502-21.207-0.49-47.096-49.324-105.899-90.748-174.794-123.144-73.749 34.674-135.806 79.602-184.471 133.562-44.98 49.872-79.892 108.883-103.769 175.394-44.076 122.772-40.698 241.107-39.072 298.054 0.264 9.256 0.492 17.249 0.492 24.167 0 11.089-0.876 22.139-2.606 32.918 91.578 14.315 221.070 46.21 329.687 117.085 63.255-40.682 170.834-93.166 329.113-117.418-1.696-10.675-2.552-21.613-2.552-32.584 0-6.918 0.228-14.911 0.494-24.241 1.624-56.869 5.004-175.204-39.072-297.98-17.903-49.864-42.186-95.826-72.171-136.61-4.906-6.674-3.474-16.063 3.202-20.969 6.672-4.906 16.057-3.476 20.969 3.2 31.703 43.12 57.351 91.65 76.232 144.243 45.992 128.108 42.502 250.266 40.824 309.046-0.258 9.026-0.48 16.821-0.48 23.311 0 10.933 0.992 21.807 2.948 32.318 1.222 6.582-0.314 13.491-4.216 18.957zM725.85 447.964v9.888c0 9.358-2.854 18.063-7.732 25.291 10.338 8.312 16.965 21.059 16.965 35.324v9.89c0 9.358-2.854 18.063-7.732 25.291 10.338 8.312 16.965 21.059 16.965 35.324v9.89c0 24.983-20.325 45.308-45.308 45.308h-100.657v61.047c0 35.316-28.733 64.049-64.049 64.049-26.505 0-48.070-21.563-48.070-48.070v-37.826c0-23.741-11.581-46.084-30.977-59.769l-23.565-16.627c-0.13 16.363-13.469 29.637-29.863 29.637h-92.268c-16.473 0-29.875-13.401-29.875-29.875v-29.777c0-8.284 6.716-14.999 14.999-14.999s14.999 6.716 14.999 14.999l-0.124 29.653 92.144 0.124 0.124-256.816-92.144-0.124v161.506c0 8.284-6.716 14.999-14.999 14.999s-14.999-6.716-14.999-14.999v-161.502c0-16.473 13.401-29.875 29.875-29.875h92.268c16.473 0 29.875 13.401 29.875 29.875v3.916l18.037-10.364c12.745-7.326 27.253-11.197 41.956-11.197h179.616c24.981 0 45.306 20.325 45.306 45.308v9.89c0 9.358-2.854 18.063-7.732 25.291 10.334 8.308 16.963 21.057 16.963 35.322zM699.009 573.664h-9.232c-8.286 0-14.999-6.716-14.999-14.999s6.714-14.999 14.999-14.999c8.442 0 15.307-6.868 15.307-15.309v-9.89c0-8.442-6.868-15.307-15.307-15.307h-9.234c-8.286 0-14.999-6.716-14.999-14.999s6.714-14.999 14.999-14.999c8.442 0 15.307-6.868 15.307-15.309v-9.888c0-8.442-6.868-15.309-15.307-15.309h-9.234c-8.286 0-14.999-6.716-14.999-14.999s6.714-14.999 14.999-14.999c8.442 0 15.307-6.868 15.307-15.307v-9.89c0-8.442-6.868-15.309-15.307-15.309h-179.616c-9.464 0-18.803 2.492-27.009 7.208l-32.984 18.953v182.049c0.972 0.628 1.934 1.27 2.876 1.936l37.97 26.791c27.353 19.299 43.682 50.806 43.682 84.282v37.826c0 9.964 8.106 18.071 18.069 18.071 18.777 0 34.050-15.275 34.050-34.050v-76.046c0-8.284 6.714-14.999 14.999-14.999h115.657c8.442 0 15.309-6.868 15.309-15.309v-9.89c0.004-8.44-6.864-15.307-15.305-15.307zM580.457 194.504c0 8.284-6.714 14.999-14.999 14.999h-106.911c-8.284 0-14.999-6.716-14.999-14.999s6.716-14.999 14.999-14.999h106.911c8.284 0 14.999 6.714 14.999 14.999zM475.146 156.474c-8.284 0-14.999-6.716-14.999-14.999s6.716-14.999 14.999-14.999h73.711c8.286 0 14.999 6.716 14.999 14.999s-6.714 14.999-14.999 14.999zM544.302 279.536c-3.198 6.584-10.578 9.768-17.391 7.922-0.8 7.53-7.168 13.395-14.911 13.395s-14.111-5.868-14.911-13.397c-6.816 1.844-14.193-1.336-17.393-7.92-3.622-7.452-0.516-16.425 6.934-20.047l1.422-0.69-1.090-1.284c-5.36-6.316-4.586-15.781 1.73-21.141 2.82-2.394 6.268-3.564 9.698-3.564 4.252 0 8.478 1.798 11.443 5.294l2.166 2.552 2.164-2.55c2.968-3.498 7.192-5.294 11.445-5.294 3.43 0 6.876 1.17 9.698 3.562 6.316 5.36 7.092 14.825 1.732 21.141l-1.090 1.284 1.422 0.69c7.452 3.622 10.556 12.597 6.934 20.047z" />
<glyph unicode="&#xe920;" glyph-name="risk-management" d="M817.496 777.932c-74.328 74.718-175.978 122.195-288.697 126.179l-0.743 0.021v13.868c0 8.837-7.163 16-16 16s-16-7.163-16-16v0-13.858c-231.633-8.782-416.082-198.681-416.082-431.66 0-0.016 0-0.032 0-0.048v0.002c0-6.822 0.136-13.036 0.414-19 0.409-8.492 7.379-15.226 15.929-15.254h0.055c8.538 0.001 15.514 6.69 15.974 15.113l0.002 0.041c2.53 46.548 40.891 83.335 87.844 83.335 48.582 0 87.966-39.384 87.966-87.966 0-0.008 0-0.016 0-0.024v0.001c0-8.837 7.163-16 16-16s16 7.163 16 16v0c-0.001 0.125-0.001 0.272-0.001 0.419 0 48.573 39.377 87.95 87.95 87.95s87.95-39.377 87.95-87.95c0-0.147 0-0.295-0.001-0.442v0.023c0-8.837 7.163-16 16-16s16 7.163 16 16v0c-0.001 0.125-0.001 0.272-0.001 0.419 0 48.575 39.377 87.952 87.952 87.952s87.952-39.377 87.952-87.952c0-0.147 0-0.295-0.001-0.442v0.023c0-8.837 7.163-16 16-16s16 7.163 16 16v0c0.014 48.579 39.399 87.955 87.98 87.955 46.525 0 84.615-36.113 87.769-81.837l0.015-0.274c0.582-8.36 7.506-14.922 15.964-14.922 8.663 0 15.718 6.884 15.992 15.481l0.001 0.025c0.172 5.584 0.348 11.356 0.348 17.328 0.001 0.351 0.002 0.768 0.002 1.184 0 118.928-48.371 226.559-126.513 304.291l-0.019 0.019zM200.178 568.66c-0.038 0-0.082 0-0.127 0-32.344 0-61.69-12.836-83.223-33.691l0.032 0.031c24.878 157.684 142.218 285.040 294.564 324.642-22.414-21.442-42.92-50.262-60.712-85.874-33.668-67.4-54.698-153.090-60.738-245.616-22.041 24.894-54.079 40.508-89.764 40.508-0.011 0-0.023 0-0.034 0h0.002zM408.080 568.66c-0.016 0-0.035 0-0.054 0-33.596 0-63.954-13.86-85.67-36.173l-0.026-0.027c6.27 85.832 25.966 164.87 57 227 32.444 64.946 73.4 103.854 116.716 111.554v-340.84c-21.932 23.699-53.199 38.486-87.92 38.486-0.016 0-0.032 0-0.048 0h0.002zM616.036 568.66c-0.017 0-0.037 0-0.057 0-34.722 0-65.99-14.787-87.851-38.407l-0.072-0.079v340.826c43.258-7.748 84.164-46.646 116.584-111.532 31.038-62.116 50.738-141.104 57.022-226.878-21.73 22.263-52.038 36.070-85.57 36.070-0.020 0-0.040 0-0.059 0h0.003zM823.934 568.66c-0.010 0-0.022 0-0.034 0-35.739 0-67.821-15.662-89.754-40.497l-0.112-0.129c-6.034 92.566-27.074 178.304-60.768 245.736-17.8 35.614-38.308 64.438-60.722 85.884 152.386-39.6 269.754-167 294.6-324.724-21.5 20.849-50.851 33.708-83.206 33.73h-0.004zM618.032 84.076v-106.076c0-8.837-7.163-16-16-16s-16 7.163-16 16v0 106.076c0 8.837 7.163 16 16 16s16-7.163 16-16v0zM437.968 84.076v-106.076c0-8.837-7.163-16-16-16s-16 7.163-16 16v0 106.076c0 8.837 7.163 16 16 16s16-7.163 16-16v0zM753.8 219.226c13.036 18.542 19.8 42.954 19.8 66.628 0.001 0.117 0.001 0.256 0.001 0.394 0 42.951-34.819 77.77-77.77 77.77s-77.77-34.819-77.77-77.77c0-0.139 0-0.277 0.001-0.416v0.021c0-23.676 6.766-48.088 19.8-66.632-14.514-1.698-27.569-6.82-38.693-14.532l0.281 0.184c-5.238 0.809-11.282 1.274-17.434 1.278h-0.004c23.688 26.49 36.080 65.788 36.080 103.74 0 58.606-47.51 106.116-106.116 106.116s-106.116-47.51-106.116-106.116v0c0-30.36 8.86-62.86 23.704-86.934 3.918-6.334 8.007-11.823 12.515-16.933l-0.115 0.133c-6.151-0.003-12.191-0.466-18.091-1.357l0.665 0.083c-10.843 7.514-23.892 12.632-37.998 14.303l-0.402 0.039c13.040 18.544 19.81 42.958 19.81 66.634 0.001 0.117 0.001 0.256 0.001 0.394 0 42.951-34.819 77.77-77.77 77.77s-77.77-34.819-77.77-77.77c0-0.139 0-0.277 0.001-0.416v0.021c0-23.676 6.766-48.086 19.8-66.63-40.642-4.662-72.236-37.368-72.236-76.922v-83.966c0-8.837 7.163-16 16-16s16 7.163 16 16v0 83.96c0 25.096 22.528 45.514 50.218 45.514h95.968c0.79 0 1.574-0.068 2.362-0.102-29.65-19.056-49.148-51.054-49.148-87.254v-122.46c0-8.837 7.163-16 16-16s16 7.163 16 16v0 122.46c0 40.634 36.162 73.692 80.6 73.692h139.98c44.478 0 80.664-33.058 80.664-73.692v-122.46c0-8.837 7.163-16 16-16s16 7.163 16 16v0 122.46c0 36.2-19.508 68.2-49.172 87.254 0.8 0.034 1.586 0.102 2.386 0.102h95.986c27.69 0 50.218-20.418 50.218-45.514v-83.966c0-8.837 7.163-16 16-16s16 7.163 16 16v0 83.966c0.008 39.558-31.592 72.266-72.236 76.924zM328.138 331.65c25.284-0.027 45.773-20.516 45.8-45.797v-0.003c0-21.548-11.2-66.038-45.8-66.038-31.548 0-45.74 38.616-45.74 66.038 0.011 25.269 20.476 45.754 45.736 45.8h0.004zM512 383.98c40.899-0.048 74.040-33.19 74.088-74.083v-0.005c0-40.108-20.114-103.74-74.088-103.74-54.014 0-74.144 63.632-74.144 103.74 0.064 40.912 33.228 74.056 74.141 74.088h0.003zM695.8 331.65c25.284-0.027 45.773-20.516 45.8-45.797v-0.003c0-27.422-14.2-66.038-45.8-66.038-34.558 0-45.74 44.49-45.74 66.038 0.011 25.269 20.476 45.754 45.736 45.8h0.004z" />
<glyph unicode="&#xe921;" glyph-name="healthcare" d="M608 752h-48v48c0 8.837-7.163 16-16 16v0h-64c-8.837 0-16-7.163-16-16v0-48h-48c-8.837 0-16-7.163-16-16v0-64c0-8.837 7.163-16 16-16v0h48v-48c0-8.837 7.163-16 16-16v0h64c8.837 0 16 7.163 16 16v0 48h48c8.837 0 16 7.163 16 16v0 64c0 8.837-7.163 16-16 16v0zM592 688h-48c-8.837 0-16-7.163-16-16v0-48h-32v48c0 8.837-7.163 16-16 16v0h-48v32h48c8.837 0 16 7.163 16 16v0 48h32v-48c0-8.837 7.163-16 16-16v0h48zM955.68 666.24c0.306 2.513 0.48 5.422 0.48 8.373 0 0.038 0 0.076 0 0.113v-0.006c-0.167 30.622-21.708 56.166-50.454 62.481l-0.426 0.079c-3.662 0.731-7.872 1.149-12.18 1.149-30.12 0-55.466-20.444-62.916-48.213l-0.104-0.455-70.4-202.56c-1.208-0.482-2.208-0.965-3.171-1.508l0.131 0.068-141.44-82.88c-42.835-25.49-71.11-71.513-71.2-124.147v-150.733c-8.837 0-16-7.163-16-16v0-128c0-8.837 7.163-16 16-16v0h224c8.837 0 16 7.163 16 16v0 128c0 8.837-7.163 16-16 16v0 35.2c0.065 14.201 6.208 26.955 15.959 35.804l0.041 0.036 108.16 96.16c11.555 10.147 20.076 23.491 24.192 38.647l0.128 0.553 69.44 259.68c1.418 4.988 2.235 10.718 2.24 16.637v0.003c-0.136 23.671-13.041 44.298-32.17 55.355l-0.31 0.165zM860.64 680.32c3.655 15.022 16.993 26 32.894 26 1.831 0 3.627-0.145 5.379-0.426l-0.193 0.025c14.592-3.136 25.381-15.899 25.44-31.193v-0.327c-29.818-0.571-54.722-20.951-62.135-48.501l-0.105-0.459-44.64-137.76c-6.241 3.035-13.492 5.184-21.132 6.052l-0.308 0.028zM752 0h-192v96h192zM955.040 602.4l-69.6-259.84c-2.543-9.339-7.581-17.28-14.353-23.319l-0.047-0.041-108.32-96.16c-16.38-14.814-26.648-36.12-26.72-59.827v-35.213h-160v150.72c0.172 40.937 22.118 76.711 54.849 96.355l0.511 0.285 141.28 82.72c4.616 2.735 10.174 4.351 16.109 4.351 11.795 0 22.099-6.381 27.649-15.879l0.082-0.152c2.66-4.648 4.228-10.216 4.228-16.151 0-2.902-0.375-5.717-1.080-8.399l0.051 0.23c-2.336-8.342-7.739-15.151-14.885-19.278l-0.155-0.082-91.68-52.96c-4.487-2.885-7.416-7.852-7.416-13.503 0-8.837 7.163-16 16-16 2.711 0 5.265 0.674 7.503 1.865l-0.086-0.042 91.68 52.96c14.629 8.411 25.413 22.115 29.818 38.438l0.102 0.442c1.369 4.944 2.155 10.622 2.155 16.483 0 11.779-3.176 22.815-8.719 32.3l0.164-0.304-0.96 1.44 49.44 152.48c3.655 15.022 16.993 26 32.894 26 1.831 0 3.627-0.145 5.379-0.426l-0.193 0.025c14.592-3.136 25.381-15.899 25.44-31.193v-0.007c0.003-0.157 0.005-0.342 0.005-0.527 0-2.778-0.411-5.46-1.176-7.988l0.051 0.195zM480 128v150.72c-0.090 52.647-28.365 98.67-70.538 123.795l-0.662 0.365-141.44 83.040c-0.96 0.48-2.080 0.8-3.040 1.28l-69.92 201.44c-7.396 28.795-33.123 49.734-63.74 49.734-4.222 0-8.35-0.398-12.35-1.159l0.41 0.065c-29.172-6.394-50.713-31.938-50.88-62.542v-0.018c0-0.032 0-0.070 0-0.107 0-2.95 0.174-5.86 0.513-8.719l-0.033 0.346c-19.439-11.222-32.344-31.849-32.48-55.501v-0.019c0.034-5.923 0.79-11.654 2.186-17.13l-0.106 0.49 69.6-259.52c4.2-15.776 12.729-29.182 24.231-39.284l0.089-0.076 108-96.16c9.895-8.831 16.109-21.605 16.16-35.831v-35.209c-8.837 0-16-7.163-16-16v0-128c0-8.837 7.163-16 16-16v0h224c8.837 0 16 7.163 16 16v0 128c0 8.837-7.163 16-16 16v0zM99.84 674.72c0.043 15.257 10.756 28 25.068 31.161l0.212 0.039c1.492 0.228 3.214 0.359 4.967 0.359 16.439 0 30.198-11.472 33.709-26.847l0.045-0.232 64.32-185.44c-7.948-0.896-15.199-3.045-21.841-6.255l0.401 0.175-44.32 136.96c-7.488 28.3-32.504 48.959-62.472 49.758l-0.088 0.002zM261.12 223.040l-108.16 96.16c-6.855 6.111-11.901 14.114-14.325 23.189l-0.075 0.331-69.76 259.68c-0.611 2.408-0.961 5.173-0.961 8.020 0 0.105 0 0.211 0.001 0.316v-0.016c0.043 15.257 10.756 28 25.068 31.161l0.212 0.039c1.53 0.242 3.295 0.38 5.091 0.38 16.278 0 29.909-11.339 33.424-26.549l0.045-0.231 49.12-151.68-0.96-1.44c-5.379-9.181-8.555-20.218-8.555-31.997 0-5.861 0.787-11.539 2.26-16.933l-0.105 0.45c4.507-16.765 15.291-30.469 29.614-38.717l0.306-0.163 91.68-52.96c2.151-1.148 4.705-1.823 7.416-1.823 8.837 0 16 7.163 16 16 0 5.651-2.93 10.618-7.353 13.464l-0.063 0.038-91.68 52.96c-7.301 4.209-12.704 11.018-14.986 19.135l-0.054 0.225c-0.653 2.452-1.028 5.267-1.028 8.169 0 5.935 1.568 11.503 4.314 16.313l-0.085-0.162c5.625 9.678 15.945 16.081 27.76 16.081 5.859 0 11.35-1.574 16.073-4.323l-0.153 0.082 141.44-82.88c33.242-19.929 55.188-55.703 55.36-96.615v-150.745h-160v35.2c-0.059 23.753-10.399 45.079-26.804 59.773l-0.076 0.067zM464 0h-192v96h192zM738.352 877.888c-28.947 28.996-68.963 46.934-113.168 46.934-44.213 0-84.236-17.944-113.181-46.947l-0.003-0.003c-28.943 29.004-68.96 46.947-113.168 46.947s-84.225-17.943-113.165-46.944l-0.003-0.003c-28.896-28.957-46.765-68.928-46.765-113.072s17.869-84.115 46.767-113.075l215.037-215.037c2.895-2.894 6.895-4.685 11.312-4.685s8.417 1.79 11.312 4.685l215.040 215.040c28.892 28.958 46.758 68.929 46.758 113.072 0 44.151-17.872 84.128-46.777 113.091l0.003-0.003zM512 470.624l-203.728 203.728c-23.127 23.157-37.429 55.132-37.429 90.448 0 70.692 57.308 128 128 128 0.013 0 0.026 0 0.039 0h-0.002c0.129 0 0.282 0.001 0.435 0.001 35.201 0 67.048-14.36 90.003-37.542l11.37-11.37c2.895-2.894 6.895-4.685 11.312-4.685s8.417 1.79 11.312 4.685l11.392 11.392c23.151 23.192 55.156 37.539 90.512 37.539s67.361-14.347 90.51-37.537l0.002-0.002c23.127-23.157 37.429-55.132 37.429-90.448s-14.302-67.291-37.43-90.449l0.001 0.001z" />
<glyph unicode="&#xe922;" glyph-name="family-insurance" d="M963.694 735.178c-57.926 12.294-112.868 28.464-163.292 48.060-10.292 4-21.884-1.102-25.886-11.398-4-10.296 1.104-21.886 11.398-25.886 47.794-18.572 99.402-34.166 153.628-46.43v-244.294c0-48.030-25.114-111.956-69.128-180.41v37.942c0 75.382-40.844 112.622-79.99 133.876 11.794 19.342 18.594 42.042 18.594 66.302 0 70.454-57.342 127.772-127.826 127.772-70.452 0-127.768-57.318-127.768-127.772 0-24.232 6.78-46.908 18.542-66.234-22.226-11.952-44.526-28.7-59.956-54.636-15.412 25.914-37.708 42.662-59.94 54.618 11.774 19.33 18.562 42.014 18.562 66.252 0 70.454-57.342 127.772-127.824 127.772-70.454 0-127.77-57.318-127.77-127.772 0-24.252 6.794-46.946 18.574-66.284-39.13-21.244-79.97-58.48-79.97-133.894v-38.028c-44.050 68.484-69.186 132.444-69.186 180.496v244.302c229.028 51.892 344.624 147.206 407.374 198.946 7.332 6.046 14.068 11.6 20.196 16.442 6.128-4.848 12.872-10.412 20.21-16.468 23.404-19.316 52.534-43.356 91.422-69.12 9.21-6.1 21.62-3.58 27.72 5.626 6.1 9.208 3.58 21.618-5.626 27.718-37.14 24.606-65.372 47.904-88.056 66.624-12.892 10.64-24.030 19.83-34.056 26.98-6.946 4.958-16.276 4.956-23.224 0-10.022-7.148-21.148-16.322-34.030-26.944-65.864-54.306-176.096-145.196-406.092-194.164-9.234-1.966-15.836-10.122-15.836-19.562v-260.386c0-46.012 17.598-100.912 52.3-163.176 30.606-54.908 73.132-112.66 122.98-167.010 83.822-91.384 204.626-189.038 292.292-189.038 87.638 0 208.424 97.654 292.238 189.044 22.072 24.068 42.702 48.802 61.502 73.662 0.458 0.55 44.73 63.316 61.47 93.348 34.706 62.264 52.3 117.166 52.3 163.176v260.384c0.002 9.446-6.606 17.602-15.846 19.564zM681.192 600.712c48.428 0 87.826-39.374 87.826-87.772s-39.398-87.772-87.826-87.772c-48.394 0-87.768 39.374-87.768 87.772s39.372 87.772 87.768 87.772zM512.030 332.39c33.36 0 60.5-27.142 60.5-60.502 0-33.392-27.14-60.558-60.5-60.558-33.362 0-60.502 27.166-60.502 60.558 0 33.36 27.14 60.502 60.502 60.502zM342.808 600.712c48.426 0 87.824-39.374 87.824-87.772s-39.398-87.772-87.824-87.772c-48.396 0-87.77 39.374-87.77 87.772s39.374 87.772 87.77 87.772zM365.666 122.39v-77.51c-37.966 28.714-77.92 65.196-116.448 107.2-20.104 21.92-38.674 44.046-55.574 66.034v94.648c0 59.046 30.732 85.304 66.684 102.708 22.276-18.88 51.062-30.3 82.48-30.3 31.424 0 60.216 11.414 82.498 30.284 21.322-10.348 42.216-24.592 54.72-48.32-39.768-13.398-68.498-51.018-68.498-95.248 0-17.206 4.348-33.414 11.992-47.59-29.028-16.874-57.854-45.816-57.854-101.906zM618.39 17.072c-41.43-26.198-78.622-41.072-106.36-41.072-27.742 0-64.934 14.868-106.364 41.056v105.334c0 39.75 19.992 58.384 44.062 70.678 17.14-13.594 38.782-21.74 62.302-21.74 23.516 0 45.154 8.146 62.294 21.734 24.072-12.314 44.068-30.958 44.068-70.672v-105.318zM830.412 218.184c-16.914-22.010-35.5-44.162-55.624-66.104-38.51-41.992-78.446-78.464-116.396-107.174v77.484c0 56.054-28.832 85.004-57.86 101.894 7.648 14.18 11.998 30.39 11.998 47.602 0 44.242-28.746 81.87-68.53 95.26 12.53 23.74 33.414 37.98 54.718 48.32 22.274-18.876 51.060-30.296 82.474-30.296 31.426 0 60.222 11.416 82.504 30.288 35.97-17.414 66.716-43.678 66.716-102.696zM702.352 783.386l0.114-0.056c2.864-1.432 5.902-2.11 8.894-2.11 7.326 0 14.374 4.068 17.88 11.084 4.94 9.88 0.878 21.922-9.002 26.862-9.878 4.94-21.892 0.934-26.832-8.944-4.94-9.882-0.936-21.896 8.946-26.836z" />
<glyph unicode="&#xe923;" glyph-name="wallet" d="M298.97 943.977c-52.99 0-96.151-43.16-96.151-96.151v-148.235h-90.643c-61.311 0-96.151-50.804-96.151-107.567v-545.491c0-52.99 43.161-96.151 96.151-96.151h721.134c52.991 0 96.151 43.161 96.151 96.151v61.284h64.101c8.85 0.035 15.996 7.238 15.963 16.088v198.249c0.034 8.85-7.112 16.052-15.963 16.088h-155.181c-63.533 0-115.244-51.679-115.244-115.212s51.711-115.212 115.244-115.212h59.030v-61.284c0-35.789-28.312-64.101-64.101-64.101h-721.134c-35.789 0-64.101 28.312-64.101 64.101v459.472c24.26-29.075 59.368-48.67 100.157-48.67 249.759-0.083 499.74 0 749.178 0v-54.242c-0.303-21.67 32.356-21.67 32.050 0v200.346c0 52.99-43.161 96.151-96.151 96.151h-37.121v148.235c0 52.991-43.161 96.151-96.151 96.151zM298.97 911.927h84.852c-7.262-77.869-70.344-139.036-148.953-143.726v79.625c0 35.789 28.312 64.101 64.101 64.101zM415.873 911.927h167.263c7.47-95.258 85.032-170.957 181.003-175.776v-246.734h-93.647c-54.539 190.107-299.277 168.999-341.851 0h-180.408c-55.764 0-100.157 44.393-100.157 100.157 1.741 40.983 25.456 77.966 64.289 77.966h90.455v-133.241c-0.307-21.672 32.357-21.672 32.050 0v201.851c95.964 4.816 173.519 80.53 181.003 175.776zM615.217 911.927h84.821c35.789-0.001 64.101-28.311 64.101-64.101v-79.625c-78.606 4.687-141.652 65.864-148.922 143.726zM499.222 842.974c-8.813-0.155-15.847-7.399-15.744-16.213v-89.203c-0.485-21.846 32.535-21.846 32.050 0v89.203c0.106 9.035-7.273 16.372-16.307 16.213zM796.189 667.54h37.121c35.789 0 64.101-28.312 64.101-64.101v-114.023h-101.222zM499.504 592.172c64.399-0.032 119.76-42.495 137.717-102.755h-275.339c17.94 60.221 73.274 102.658 137.623 102.755zM121.128 418.931c-20.873-1.546-19.263-32.668 1.659-32.050h28.263c21.852-0.491 21.852 32.541 0 32.050-9.887 0-20.173 0-29.922 0zM241.693 418.931c-20.827-1.567-19.251-32.601 1.628-32.050h28.294c21.852-0.491 21.852 32.541 0 32.050-9.889 0-20.169 0-29.922 0zM362.351 418.931c-20.865-1.474-19.376-32.576 1.534-32.050h28.388c21.852-0.491 21.852 32.541 0 32.050-9.894 0-20.156 0-29.922 0zM482.884 418.931c-20.865-1.474-19.376-32.576 1.534-32.050h28.388c21.852-0.491 21.852 32.541 0 32.050-9.894 0-20.156 0-29.922 0zM603.418 418.931c-20.873-1.546-19.262-32.668 1.659-32.050h28.295c21.852-0.491 21.852 32.541 0 32.050-9.898 0-20.194 0-29.953 0zM706.83 418.931c-20.873-1.546-19.263-32.668 1.659-32.050h28.263c21.852-0.491 21.852 32.541 0 32.050-9.887 0-20.173 0-29.922 0zM803.952 418.931c-20.873-1.546-19.263-32.668 1.659-32.050h12.301v-12.301c-0.485-21.846 32.535-21.846 32.050 0v28.388c0 13.811-9.993 15.963-18.623 15.963-9.042 0.001-18.483 0-27.387 0zM838.381 306.191h139.094v-166.324h-139.094c-46.332 0-83.162 36.831-83.162 83.162s36.83 83.162 83.162 83.162zM833.936 84.53c-8.013 0.029-16.025-5.945-16.025-17.997v-12.301h-12.301c-21.388 0-21.388-32.082 0-32.082h27.199c9.274-0.651 17.154 6.698 17.152 15.994v28.388c0 11.937-8.013 17.968-16.025 17.997zM122.787 54.232c-21.388 0-21.388-32.082 0-32.082h28.263c21.388 0 21.388 32.082 0 32.082zM243.32 54.232c-21.388 0-21.388-32.082 0-32.082h28.294c21.388 0 21.388 32.082 0 32.082zM363.885 54.232c-21.388 0-21.388-32.082 0-32.082h28.388c21.388 0 21.388 32.082 0 32.082zM484.418 54.232c-21.388 0-21.388-32.082 0-32.082h28.388c21.388 0 21.388 32.082 0 32.082zM605.076 54.232c-21.388 0-21.388-32.082 0-32.082h28.295c21.388 0 21.388 32.082 0 32.082zM708.489 54.232c-21.388 0-21.388-32.082 0-32.082h28.263c21.388 0 21.388 32.082 0 32.082z" />
<glyph unicode="&#xe924;" glyph-name="creation" d="M921.441 577.446c2.251-7.138 4.315-14.344 6.19-21.61l72.019-27.718c6.202-2.387 10.294-8.347 10.294-14.991v-130.383c0-6.646-4.092-12.605-10.294-14.991 0 0-72.029-27.722-72.027-27.722-9.965-38.446-25.311-75.262-45.407-109.53l31.288-70.64c2.691-6.070 1.367-13.167-3.327-17.862l-92.176-92.176c-4.694-4.694-11.792-6.018-17.862-3.327 0 0-70.606 31.274-70.606 31.274-34.184-20.187-71.1-35.442-109.564-45.393l-27.722-72.027c-2.385-6.202-8.345-10.294-14.991-10.294h-130.383c-6.644 0-12.603 4.092-14.991 10.294 0 0-27.72 72.021-27.718 72.021-38.561 9.965-75.39 25.313-109.664 45.413l-70.64-31.288c-6.070-2.691-13.167-1.367-17.862 3.327l-92.176 92.176c-4.7 4.7-6.020 11.81-3.319 17.884 0 0 31.391 70.598 31.391 70.596-20.183 34.178-35.44 71.086-45.494 109.542l-72.051 27.732c-6.202 2.385-10.294 8.345-10.294 14.991v130.383c0 6.644 4.092 12.603 10.294 14.991 0 0 72.045 27.728 72.045 27.728 10.053 38.559 25.315 75.388 45.504 109.662l-31.395 70.61c-2.701 6.074-1.381 13.183 3.319 17.884l92.176 92.176c4.7 4.7 11.81 6.020 17.884 3.319 0 0 70.61-31.395 70.608-31.397 34.276 20.191 71.096 35.444 109.548 45.395l27.849 72.17c2.391 6.194 8.347 10.28 14.987 10.28h130.383c6.65 0 12.609-4.096 14.995-10.302 0 0 27.724-72.152 27.722-72.152 38.448-9.951 75.264-25.204 109.534-45.389l70.61 31.395c6.074 2.701 13.183 1.381 17.884-3.319l48.070-48.068c19.916 29.618 59.848 39.251 91.24 21.098l18.303-10.493c32.78-18.884 44.050-61.097 25.166-93.877l-0.008-0.014zM849.29 769.458l-46.2 46.2-68.176-30.312c-4.843-2.152-10.439-1.779-14.952 1.002-35.83 22.080-74.814 38.229-115.692 47.943-5.158 1.227-9.379 4.917-11.28 9.867l-26.767 69.662h-108.329l-26.889-69.684c-1.905-4.937-6.122-8.62-11.272-9.844-40.878-9.714-79.862-25.863-115.692-47.943-4.514-2.781-10.109-3.154-14.952-1.002l-68.176 30.312-76.569-76.569 30.312-68.176c2.152-4.843 1.779-10.439-1.002-14.952-22.086-35.842-38.239-74.84-48.084-115.859-1.233-5.138-4.915-9.342-9.848-11.242l-69.54-26.763v-108.325l69.54-26.765c4.929-1.897 8.61-6.096 9.846-11.23 9.842-40.886 25.99-80.007 48.072-115.718 2.793-4.516 3.172-10.122 1.016-14.972l-30.312-68.176 76.581-76.581 68.184 30.202c4.827 2.138 10.395 1.767 14.896-0.99 35.84-21.96 74.834-38.245 115.849-47.961 5.16-1.223 9.383-4.913 11.288-9.861l26.763-69.54h108.325l26.765 69.54c1.903 4.943 6.122 8.632 11.276 9.857 40.87 9.714 79.974 25.855 115.672 47.931 4.51 2.787 10.105 3.17 14.952 1.024l68.184-30.202 76.593 76.593-30.202 68.184c-2.138 4.827-1.767 10.395 0.99 14.896 21.96 35.842 38.247 74.838 47.965 115.728 1.225 5.154 4.913 9.373 9.857 11.276l69.54 26.765v108.325l-69.54 26.763c-4.393 1.691-7.794 5.21-9.357 9.589l-32.65-56.537c1.050-11.129 1.588-22.41 1.588-33.814 0-196.57-159.391-355.96-355.96-355.96-196.572 0-355.764 159.389-355.764 355.96 0 196.574 159.19 355.764 355.764 355.764 113.2 0 214.070-52.792 279.267-135.116 0 0 50.060 86.801 58.121 100.711zM972.947 730.877c10.051 17.452 4.092 39.938-13.358 49.995l-18.269 10.475c-0.020 0.012-0.042 0.024-0.062 0.036-17.438 10.101-39.842 4.054-49.889-13.384l-0.008-0.016-7.897-13.673c-0.102-0.181-0.207-0.361-0.313-0.542l-14.487-25.082 81.583-47.12zM835.12 427.964l-101.864-176.397c-1.397-2.421-3.415-4.457-5.879-5.879l-109.16-63.014c-0.875-0.526-2.935-1.381-3-1.403-3.931-1.393-67.949-23.889-103.217-23.889-160.397 0-290.619 130.223-290.619 290.619s130.223 290.619 290.619 290.619c8.865 0 16.063-7.198 16.063-16.063 0-8.867-7.198-16.063-16.063-16.063-142.665 0-258.494-115.828-258.494-258.494s115.828-258.494 258.494-258.494c24.126 0 63.201 12.075 81.87 18.348v114.987c0 2.845 0.755 5.612 2.154 8.033l177.726 307.714c-58.894 80.717-154.249 133.148-261.849 133.148-178.823 0-323.638-144.816-323.638-323.638 0-178.827 144.814-323.835 323.638-323.835 172.066 0 312.82 134.248 323.219 303.7zM713.473 281.548l220.706 382.197-81.585 47.122-220.72-382.155zM625.995 295.004v-70.746l61.237 35.35z" />
<glyph unicode="&#xe925;" glyph-name="save-money" d="M525.368 401.145c-1.895 0.41-3.838 0.484-5.757 0.197-19.232 2.239-33.741 18.511-33.774 37.866 0 9.276-7.521 16.797-16.797 16.797s-16.797-7.521-16.797-16.797c0.049-32.322 21.668-60.633 52.834-69.187v-16.797c0-9.276 7.521-16.797 16.797-16.797s16.797 7.521 16.797 16.797v15.78c35.972 7.529 60.42 41.032 56.639 77.586-3.789 36.554-34.585 64.332-71.336 64.34-21.061 0-38.137 17.075-38.137 38.137s17.075 38.137 38.137 38.137 38.137-17.075 38.137-38.137c0-9.276 7.521-16.797 16.797-16.797s16.797 7.521 16.797 16.797c-0.049 33.938-23.825 63.209-57.033 70.213v15.287c0 9.276-7.521 16.797-16.797 16.797s-16.797-7.521-16.797-16.797v-16.313c-34.659-9.464-56.967-43.115-52.194-78.726s35.16-62.192 71.090-62.183c20.782 0 37.735-16.641 38.112-37.415 0.385-20.774-15.952-38.030-36.718-38.785zM280.408 492.846c0-134.52 109.046-243.566 243.566-243.566s243.566 109.046 243.566 243.566-109.046 243.566-243.566 243.566c-134.454-0.148-243.411-109.112-243.566-243.566zM523.974 702.819c115.968 0 209.973-94.005 209.973-209.973s-94.005-209.973-209.973-209.973-209.973 94.005-209.973 209.973c0.131 115.911 94.062 209.842 209.973 209.973zM850.342 207.87l-131.576-62.167c-18.166 33.79-53.014 55.294-91.364 56.377l-121.463 3.338c-19.232 0.549-38.104 5.421-55.204 14.254l-12.36 6.405c-63.282 32.986-138.711 32.904-201.928-0.213l0.771 28c0.254 9.276-7.053 17.002-16.329 17.256l-133.191 3.666c-9.276 0.254-16.993-7.053-17.248-16.329l-8.046-292.283c-0.254-9.276 7.053-17.002 16.329-17.256l133.651-3.666c9.104 0 16.551 7.242 16.797 16.337l0.385 13.983 34.602 18.527c13.582 7.307 29.46 9.046 44.296 4.847l206.627-57.992c0.361-0.107 0.722-0.189 1.091-0.271 14.935-3.125 30.157-4.691 45.411-4.683 32.314-0.016 64.25 6.947 93.619 20.43 0.722 0.328 1.419 0.714 2.083 1.148l299.591 193.784c7.463 4.831 9.875 14.631 5.503 22.374-22.242 39.465-71.574 54.499-112.048 34.134zM96.449-17.965l7.119 258.706 99.607-2.739-7.119-258.715zM640.082-13.569c-36.488-16.468-77.241-21.012-116.46-12.999l-206.069 57.845c-23.194 6.553-48.019 3.838-69.237-7.57l-17.682-9.473 4.732 172.009c56.032 37.267 127.893 41.097 187.567 10.006l12.36-6.405c21.603-11.154 45.428-17.305 69.729-18.010l121.472-3.338c34.118-0.984 63.094-25.277 70.016-58.706l-180.932 4.995c-9.276 0.254-16.993-7.061-17.256-16.329-0.254-9.276 7.061-17.002 16.329-17.256l200.14-5.495c9.095 0.008 16.534 7.25 16.78 16.337 0.205 7.299-0.336 14.607-1.624 21.791l134.955 63.766c0.131 0.057 0.262 0.123 0.394 0.189 19.142 9.686 42.287 6.446 58.033-8.128zM540.771 783.636v159.567c0 9.276-7.521 16.797-16.797 16.797s-16.797-7.521-16.797-16.797v-159.567c0-9.276 7.521-16.797 16.797-16.797s16.797 7.521 16.797 16.797zM666.745 783.636v75.585c0 9.276-7.521 16.797-16.797 16.797s-16.797-7.521-16.797-16.797v-75.585c0-9.276 7.521-16.797 16.797-16.797s16.797 7.521 16.797 16.797zM414.796 783.636v75.585c0 9.276-7.521 16.797-16.797 16.797s-16.797-7.521-16.797-16.797v-75.585c0-9.276 7.521-16.797 16.797-16.797s16.797 7.521 16.797 16.797z" />
<glyph unicode="&#xe926;" glyph-name="file-1" d="M682.667 0h-512c-58.881 0.073-106.594 47.786-106.667 106.66v682.674c0.073 58.881 47.786 106.594 106.66 106.667h329.82c29.869-0.021 56.875-12.259 76.296-31.986l0.014-0.014 182.144-186.432c18.799-19.179 30.4-45.474 30.4-74.478 0-0.074 0-0.148 0-0.222v0.012-158.933c0-11.782-9.551-21.333-21.333-21.333s-21.333 9.551-21.333 21.333v0 158.933c0 0.010 0 0.022 0 0.034 0 17.431-6.969 33.235-18.272 44.777l-182.154 186.442c-11.645 11.854-27.844 19.2-45.759 19.2 0 0-0.001 0-0.001 0h-329.813c-35.346 0-64-28.654-64-64v0-682.667c0-35.346 28.654-64 64-64v0h512c0.071 0 0.155 0 0.24 0 8.377 0 16.361 1.686 23.63 4.737l-0.403-0.15c2.4 1.015 5.19 1.604 8.117 1.604 11.784 0 21.338-9.553 21.338-21.338 0-8.857-5.396-16.453-13.080-19.681l-0.141-0.052c-11.664-4.925-25.226-7.787-39.455-7.787-0.086 0-0.173 0-0.259 0h0.013zM759.253 618.667h-140.587c-58.881 0.073-106.594 47.786-106.667 106.66v142.727c0 11.782 9.551 21.333 21.333 21.333s21.333-9.551 21.333-21.333v0-142.72c0-35.346 28.654-64 64-64v0h140.587c11.782 0 21.333-9.551 21.333-21.333s-9.551-21.333-21.333-21.333v0zM725.333 3.115c-0.015 0-0.033 0-0.051 0-8.792 0-16.96 2.67-23.738 7.243l0.151-0.096-68.523 45.696c-86.407 58.052-142.507 155.418-142.507 265.886 0 0.102 0 0.203 0 0.305v-0.015 36.523c0.090 20.051 13.935 36.843 32.581 41.432l0.294 0.061c67.932 19.085 127.344 46.641 181.079 82.101l-2.391-1.482c6.528 4.262 14.52 6.797 23.104 6.797s16.576-2.535 23.268-6.897l-0.164 0.1c51.344-33.983 110.757-61.539 174.191-79.528l4.497-1.090c18.94-4.65 32.785-21.442 32.875-41.483v-36.533c0-0.111 0-0.243 0-0.375 0-110.468-56.099-207.834-141.363-265.162l-1.143-0.724-68.501-45.675c-6.609-4.438-14.744-7.083-23.497-7.083-0.057 0-0.113 0-0.17 0h0.009zM725.333 444.928c-55.018-36.413-118.697-65.895-186.695-85.074l-4.793-1.155-0.512-36.565c0-0.093 0-0.204 0-0.314 0-95.742 48.616-180.128 122.508-229.821l0.991-0.628 68.501-45.589 68.501 45.675c74.883 50.32 123.499 134.707 123.499 230.448 0 0.081 0 0.161 0 0.241v-0.012 36.523c-72.98 20.326-136.831 49.818-194.569 87.839l2.569-1.589zM704 192c-5.89 0.001-11.223 2.39-15.083 6.251l-42.667 42.667c-3.705 3.832-5.989 9.060-5.989 14.821 0 11.782 9.551 21.333 21.333 21.333 5.761 0 10.988-2.283 14.827-5.994l27.578-27.578 70.251 70.251c3.832 3.705 9.060 5.989 14.821 5.989 11.782 0 21.333-9.551 21.333-21.333 0-5.761-2.283-10.988-5.994-14.827l-85.327-85.327c-3.86-3.861-9.192-6.249-15.082-6.251v0zM384 682.667h-170.667c-11.782 0-21.333 9.551-21.333 21.333s9.551 21.333 21.333 21.333v0h170.667c11.782 0 21.333-9.551 21.333-21.333s-9.551-21.333-21.333-21.333v0zM512 554.667h-298.667c-11.782 0-21.333 9.551-21.333 21.333s9.551 21.333 21.333 21.333v0h298.667c11.782 0 21.333-9.551 21.333-21.333s-9.551-21.333-21.333-21.333v0zM554.667 426.667h-341.333c-11.782 0-21.333 9.551-21.333 21.333s9.551 21.333 21.333 21.333v0h341.333c11.782 0 21.333-9.551 21.333-21.333s-9.551-21.333-21.333-21.333v0zM426.667 298.667h-213.333c-11.782 0-21.333 9.551-21.333 21.333s9.551 21.333 21.333 21.333v0h213.333c11.782 0 21.333-9.551 21.333-21.333s-9.551-21.333-21.333-21.333v0zM426.667 170.667h-213.333c-11.782 0-21.333 9.551-21.333 21.333s9.551 21.333 21.333 21.333v0h213.333c11.782 0 21.333-9.551 21.333-21.333s-9.551-21.333-21.333-21.333v0z" />
<glyph unicode="&#xe927;" glyph-name="life-insurance" d="M774.827 846.507l-256 112.060c-4.353 1.9-9.3 1.9-13.653 0l-256-112.060c-6.217-2.713-10.237-8.85-10.24-15.633v-267.947c0.093-60.217 29.029-116.744 77.824-152.030l176.93-127.607c10.927-7.909 25.698-7.909 36.625 0l176.93 127.59c48.795 35.286 77.731 91.813 77.824 152.030v267.964c-0.003 6.783-4.023 12.92-10.24 15.633zM750.933 562.91c-0.078-49.253-23.747-95.487-63.659-124.348l-175.275-126.413-175.275 126.413c-39.911 28.861-63.58 75.095-63.659 124.348v256.802l238.933 104.585 238.933-104.585v-256.802zM505.173 884.053l-187.733-82.193c-6.217-2.713-10.237-8.85-10.24-15.633v-223.317c0.053-38.292 18.457-74.238 49.493-96.666l145.323-104.823c5.961-4.3 14.007-4.3 19.968 0l145.323 104.823c31.036 22.428 49.441 58.374 49.493 96.666v223.317c-0.003 6.783-4.023 12.92-10.24 15.633l-187.733 82.193c-4.353 1.9-9.3 1.9-13.653 0zM682.667 775.083v-212.173c-0.052-27.324-13.187-52.971-35.328-68.983l-135.339-97.621-135.339 97.621c-22.141 16.012-35.276 41.659-35.328 68.983v212.173l170.667 74.701 170.667-74.701zM141.397 393.387l-36.915 86.255c-7.85 17.783-24.591 30.027-43.917 32.12s-38.3-6.283-49.775-21.973c-11.475-15.69-13.708-36.31-5.858-54.093l66.884-147.132c9.023-19.918 21.576-38.039 37.052-53.487l105.182-105.199c-5.924-6.279-9.232-14.579-9.25-23.211v-136.533c0-18.851 15.282-34.133 34.133-34.133h187.733c18.851 0 34.133 15.282 34.133 34.133v136.533c0 18.851-15.282 34.133-34.133 34.133v31.761c0.523 40.419-12.664 79.824-37.41 111.787-14.508 19.082-34.281 33.504-56.883 41.489-35.945 15.102-69.003 36.317-97.707 62.703-26.644 21.944-64.495 23.911-93.269 4.847zM426.667-29.867h-187.733v136.533h187.733v-136.533zM362.615 263.031c19.893-25.918 30.437-57.802 29.918-90.47v-31.761h-141.124l-118.409 118.409c-12.576 12.558-22.78 27.284-30.123 43.469l-66.884 147.132c-2.854 6.28-2.323 13.579 1.41 19.38s10.158 9.307 17.056 9.309c8.118 0.007 15.454-4.837 18.637-12.305l38.178-89.037c10.138-23.755 24.751-45.338 43.042-63.573l77.961-77.978c4.285-4.437 10.63-6.216 16.597-4.654s10.627 6.222 12.189 12.189c1.562 5.967-0.217 12.312-4.654 16.597l-77.961 77.978c-7.839 7.82-14.888 16.395-21.043 25.6 16.39 12.612 39.319 12.23 55.279-0.922 31.903-29.279 68.777-52.628 108.885-68.949 16.342-5.943 30.602-16.509 41.045-30.413zM375.467 55.467h-17.067c-9.426 0-17.067-7.641-17.067-17.067s7.641-17.067 17.067-17.067h17.067c9.426 0 17.067 7.641 17.067 17.067s-7.641 17.067-17.067 17.067zM952.183 288.563l66.884 147.132c8.224 17.843 6.189 38.734-5.323 54.655s-30.713 24.399-50.235 22.18c-19.521-2.219-36.33-14.79-43.975-32.888l-36.83-85.931c-28.875 18.97-66.744 16.893-93.372-5.12-28.704-26.386-61.762-47.601-97.707-62.703-22.602-7.985-42.375-22.407-56.883-41.489-24.757-31.977-37.945-71.401-37.41-111.838v-31.761c-18.851 0-34.133-15.282-34.133-34.133v-136.533c0-18.851 15.282-34.133 34.133-34.133h187.733c18.851 0 34.133 15.282 34.133 34.133v136.533c-0.019 8.632-3.326 16.932-9.25 23.211l105.182 105.199c15.476 15.448 28.028 33.569 37.052 53.487zM785.067-29.867h-187.733v136.533h187.733v-136.533zM772.591 140.8h-141.124v31.761c-0.515 32.663 10.028 64.54 29.918 90.453 10.42 13.895 24.649 24.466 40.96 30.43 40.116 16.317 76.996 39.666 108.902 68.949 15.943 13.251 38.936 13.698 55.381 1.075-6.173-9.273-13.257-17.906-21.146-25.771l-77.961-77.978c-6.468-6.697-6.375-17.341 0.208-23.924s17.228-6.676 23.924-0.208l77.961 77.978c18.291 18.235 32.904 39.818 43.042 63.573l38.178 89.054c3.192 7.458 10.525 12.293 18.637 12.288 6.898-0.003 13.322-3.509 17.056-9.309s4.265-13.1 1.41-19.38l-66.884-147.132c-7.342-16.185-17.547-30.911-30.123-43.469l-118.34-118.391zM665.6 55.467h-17.067c-9.426 0-17.067-7.641-17.067-17.067s7.641-17.067 17.067-17.067h17.067c9.426 0 17.067 7.641 17.067 17.067s-7.641 17.067-17.067 17.067zM419.84 598.187c-7.541 5.655-18.238 4.127-23.893-3.413s-4.127-18.238 3.413-23.893l68.267-51.2c2.954-2.216 6.547-3.413 10.24-3.413 0.966 0.003 1.931 0.083 2.884 0.239 4.622 0.793 8.714 3.453 11.315 7.356l136.533 204.8c3.384 5.073 3.805 11.566 1.103 17.033s-8.114 9.078-14.199 9.472c-6.085 0.394-11.919-2.488-15.303-7.561l-126.532-189.798-53.828 40.38z" />
<glyph unicode="&#xe928;" glyph-name="protection-1" d="M767.872 239.808c-3.328 0-6.72 1.056-9.6 3.232-7.072 5.312-8.48 15.328-3.168 22.4 39.84 52.96 60.896 116.096 60.896 182.56 0 20.864-2.144 41.76-6.368 62.080-1.792 8.672 3.776 17.12 12.416 18.912 8.608 1.792 17.12-3.776 18.912-12.416 4.672-22.464 7.040-45.536 7.040-68.576 0-73.44-23.296-143.264-67.328-201.824-3.168-4.192-7.968-6.368-12.8-6.368zM198.912 365.312c-7.392 0-14.048 5.184-15.648 12.704-4.8 22.944-7.264 46.496-7.264 69.984 0 73.12 23.072 142.656 66.752 201.024 5.28 7.104 15.328 8.576 22.4 3.232 7.072-5.312 8.544-15.328 3.232-22.4-39.52-52.8-60.384-115.68-60.384-181.856 0-21.28 2.208-42.624 6.592-63.392 1.824-8.64-3.712-17.12-12.352-18.944-1.12-0.256-2.24-0.352-3.328-0.352zM560 288h-96c-8.832 0-16 7.168-16 16v80h-80c-8.832 0-16 7.168-16 16v96c0 8.832 7.168 16 16 16h80v80c0 8.832 7.168 16 16 16h96c8.832 0 16-7.168 16-16v-80h80c8.832 0 16-7.168 16-16v-96c0-8.832-7.168-16-16-16h-80v-80c0-8.832-7.168-16-16-16zM480 320h64v80c0 8.832 7.168 16 16 16h80v64h-80c-8.832 0-16 7.168-16 16v80h-64v-80c0-8.832-7.168-16-16-16h-80v-64h80c8.832 0 16-7.168 16-16zM580.512 0h-167.712c-31.264 0-61.792 6.976-90.752 20.736l-112.096 54.464c-28.736 13.792-59.36 20.8-90.88 20.8h-71.072c-8.832 0-16 7.168-16 16s7.168 16 16 16h71.072c36.352 0 71.616-8.064 104.8-24l112.064-54.432c24.512-11.616 50.4-17.568 76.864-17.568h164.512l139.744 57.664c0 1.344 1.888 13.728-4.256 24.256-9.376 16.128-31.040 16.64-47.456 14.24-23.84-3.68-43.552-10.304-60.928-16.16l-6.592-2.208c-8.416-2.72-17.44 1.728-20.224 10.144-2.784 8.384 1.76 17.44 10.144 20.224l6.464 2.144c18.624 6.272 39.712 13.376 66.4 17.472 65.984 9.6 82.464-31.616 86.016-44.448 5.856-21.152 0.992-47.616-17.28-55.264l-142.752-58.912c-1.92-0.736-4-1.152-6.080-1.152zM372.32 227.936c-6.016 0-11.808 3.424-14.528 9.248-31.36 67.488-112.832 77.152-173.408 52.032-1.952-0.8-4.032-1.216-6.144-1.216h-130.24c-8.832 0-16 7.168-16 16s7.168 16 16 16h127.136c86.624 34.4 177.152 4.864 211.712-69.344 3.712-8 0.256-17.536-7.776-21.28-2.208-0.96-4.48-1.44-6.752-1.44zM523.968 76.064c-2.080 0-4.16 0.416-6.112 1.216l-183.232 76.064c-8.16 3.392-12.032 12.736-8.64 20.928 3.392 8.16 12.768 12 20.928 8.64l167.136-69.376c7.008 32.992-11.040 58.656-53.92 76.416l-94.176 39.104c-8.16 3.392-12.032 12.768-8.64 20.928s12.768 12.032 20.928 8.64l94.144-39.104c65.952-27.328 90.144-76 66.368-133.504-1.632-3.936-4.736-7.072-8.672-8.672-1.952-0.864-4.032-1.28-6.112-1.28zM344.672 734.752c-50.336 0-64.096 34.368-67.296 45.888-5.856 21.152-0.992 47.616 17.28 55.264l142.752 58.912c1.92 0.768 4 1.184 6.080 1.184h167.68c31.264 0 61.792-6.976 90.752-20.736l112.096-54.464c28.768-13.792 59.392-20.8 90.912-20.8h71.072c8.832 0 16-7.168 16-16s-7.168-16-16-16h-71.072c-36.352 0-71.616 8.064-104.8 24l-112.064 54.4c-24.512 11.648-50.4 17.6-76.864 17.6h-164.512l-139.776-57.664c0-1.344-1.888-13.728 4.256-24.256 9.408-16.128 31.008-16.64 47.456-14.24 23.84 3.68 43.552 10.304 60.928 16.16l6.592 2.208c8.416 2.752 17.44-1.728 20.224-10.144 2.784-8.384-1.76-17.44-10.144-20.224l-6.464-2.144c-18.624-6.272-39.712-13.376-66.4-17.472-6.72-1.024-12.96-1.472-18.688-1.472zM776.288 561.76c-60.48 0-114.304 30.208-139.136 83.584-3.712 8-0.256 17.536 7.776 21.28 8.032 3.712 17.536 0.224 21.28-7.776 31.328-67.456 112.768-77.088 173.408-52.032 1.952 0.768 4.032 1.184 6.144 1.184h130.24c8.832 0 16-7.168 16-16s-7.168-16-16-16h-127.136c-24.32-9.632-48.96-14.24-72.576-14.24zM651.904 636.16c-2.048 0-4.128 0.384-6.144 1.216l-94.144 39.104c-65.952 27.328-90.144 76-66.368 133.504 1.632 3.936 4.736 7.072 8.672 8.672s8.32 1.632 12.256 0l183.232-76.064c8.16-3.392 12.032-12.736 8.64-20.928s-12.704-12-20.928-8.64l-167.136 69.376c-7.008-32.992 11.040-58.656 53.92-76.416l94.176-39.104c8.16-3.392 12.032-12.768 8.64-20.928-2.592-6.080-8.544-9.792-14.816-9.792zM720.48 190.88c-4.096 0-8.192 1.568-11.328 4.672-6.24 6.24-6.24 16.384 0 22.624 6.272 6.24 17.504 7.36 23.744 1.12s7.36-15.264 1.12-21.504l-2.24-2.24c-3.104-3.104-7.2-4.672-11.296-4.672zM304.48 670.88c-4.128 0-8.256 1.6-11.392 4.768-6.208 6.304-6.144 16.416 0.16 22.624l2.272 2.24c6.272 6.208 16.416 6.144 22.624-0.16s6.144-16.416-0.16-22.624l-2.272-2.24c-3.104-3.072-7.168-4.608-11.232-4.608z" />
<glyph unicode="&#xe929;" glyph-name="travel-insurance" d="M712.388 813.628c-1.381 0.847-2.986 1.503-4.696 1.879l-0.104 0.019c-58.809 69-145.796 112.475-242.937 112.475-0.229 0-0.458 0-0.687-0.001h0.035c-176.45 0-320-143.55-320-320s143.55-320 320-320c73.735 0.050 141.637 24.985 195.771 66.859l-0.739-0.549c11.268-6.366 24.454-12.313 38.192-17.078l1.73-0.522c1.411-0.452 3.034-0.713 4.718-0.714h0.572c1.684 0.001 3.307 0.262 4.831 0.745l-0.113-0.031c2.262 0.696 56.014 17.646 109.984 67.542 49.71 45.962 108.97 129.722 108.97 267.748 0 5.732-3.015 10.759-7.544 13.585l-0.068 0.039zM474.308 895.8c80.383-2.787 151.965-38.272 202.256-93.489l0.206-0.229-180.77-111.282v61.2c0 0 0 0 0 0.001 0 7.726-5.476 14.173-12.759 15.671l-0.103 0.018-60.4 12.080zM282.944 384.2l46.656 35c3.903 2.95 6.4 7.583 6.4 12.8 0 2.609-0.624 5.071-1.732 7.247l0.042-0.091-29.764 59.53 9.37 65.6 7.234-10.85 15.328-61.312c1.074-4.202 3.701-7.66 7.219-9.8l0.071-0.040 73.2-43.922 12.926-116.33c-56.415 6.876-106.626 29.206-147.464 62.575l0.514-0.407zM464 320c-0.562 0-1.12 0.018-1.682 0.022l-14.416 129.746c-0.582 5.093-3.48 9.407-7.599 11.912l-0.071 0.040-74.318 44.59-14.4 57.57c-0.478 1.899-1.235 3.567-2.236 5.057l0.036-0.057-32 48c-2.91 4.321-7.784 7.125-13.313 7.125-8.038 0-14.692-5.927-15.829-13.65l-0.011-0.087-16-112c-0.102-0.678-0.16-1.461-0.16-2.258 0-2.611 0.624-5.075 1.732-7.253l-0.042 0.091 26.026-52.056-40.898-30.676c-51.196 51.817-82.82 123.072-82.82 201.712 0 0.060 0 0.121 0 0.181v-0.009c0 150.342 115.8 274.126 262.888 286.892l-53.51-120.4c-0.871-1.911-1.379-4.146-1.379-6.499 0-7.726 5.477-14.174 12.76-15.672l0.103-0.018 67.138-13.422v-66.882c0 0 0 0 0-0.001 0-7.027 4.53-12.996 10.829-15.146l0.113-0.033 5.4-1.8c4.63-127.94 61-206.722 108.628-250.764 12.121-11.226 25.312-21.753 39.246-31.272l1.172-0.756c-46.086-32.637-103.45-52.186-165.377-52.228h-0.011zM798.262 428.718c-26.526-24.941-57.822-45.175-92.324-59.147l-2.002-0.717c-36.068 14.456-67.001 34.365-93.409 59.054l0.169-0.156c-63.568 58.772-96.72 137.926-98.61 235.366l191.872 118.124 191.872-118.124c-1.878-96.886-34.68-175.706-97.568-234.4zM956.266 287.498c-10.964 6.82-24.27 10.863-38.521 10.863-12.543 0-24.354-3.132-34.694-8.656l0.396 0.193-106.9-55.588c-13.090 27.477-40.637 46.128-72.54 46.128-13.043 0-25.359-3.118-36.241-8.648l0.456 0.21-157.8-78.906-218.022 62.29c-1.318 0.391-2.833 0.616-4.4 0.616h-96v16c0 8.837-7.163 16-16 16v0h-128c-8.837 0-16-7.163-16-16v0-224c0-8.837 7.163-16 16-16v0h128c8.837 0 16 7.163 16 16v0 11.29l347.96-90.772c1.21-0.328 2.599-0.516 4.032-0.516 2.852 0 5.529 0.746 7.848 2.054l-0.080-0.041 432 240c4.949 2.784 8.238 8 8.24 13.986v0c0 0.091 0.001 0.198 0.001 0.305 0 26.687-14.177 50.063-35.41 63.009l-0.325 0.184zM160 64h-96v192h96zM541.834 1.1l-349.834 91.262v131.638h93.76l221.84-63.384c1.317-0.391 2.83-0.616 4.396-0.616 2.609 0 5.071 0.624 7.247 1.732l-0.091-0.042 163.378 81.688c6.235 3.266 13.621 5.182 21.454 5.182 7.231 0 14.080-1.633 20.2-4.55l-0.284 0.122c10.877-5.003 19.375-13.626 24.095-24.294l0.121-0.306-179.496-93.332c-5.164-2.725-8.623-8.058-8.623-14.2 0-8.838 7.165-16.003 16.003-16.003 2.697 0 5.238 0.667 7.467 1.845l-0.087-0.042 314.82 163.716c5.662 3.002 12.378 4.764 19.506 4.764 20.204 0 37.101-14.161 41.308-33.099l0.052-0.281zM695.58 738.502l-142.412-87.674c-4.597-2.865-7.611-7.893-7.611-13.625 0-0.517 0.024-1.028 0.072-1.532l-0.005 0.064c6.768-73.556 34.646-134.38 82.86-180.78 19.563-18.794 42.003-34.799 66.552-47.247l1.576-0.725c2.070-1.047 4.513-1.66 7.099-1.66 2.577 0 5.011 0.609 7.167 1.69l-0.092-0.042c26.245 13.176 48.791 29.198 68.545 48.112l-0.101-0.096c48.4 46.42 76.38 107.274 83.152 180.872 0.043 0.44 0.067 0.95 0.067 1.467 0 5.731-3.013 10.758-7.542 13.584l-0.067 0.039c-34.47 21.23-91.984 56.56-142.502 87.564-2.381 1.484-5.273 2.363-8.369 2.363-3.105 0-6.003-0.884-8.456-2.415l0.068 0.039zM829.466 629c-7.52-61.296-31.844-112.032-72.384-150.91-15.481-14.819-33.011-27.694-52.074-38.115l-1.282-0.641c-20.228 11.047-37.658 23.897-53.134 38.764l0.082-0.078c-40.384 38.864-64.626 89.578-72.134 150.856l125.44 77.226c44.32-27.212 92.65-56.902 125.486-77.102zM644.686 548.686l32-32c2.895-2.896 6.896-4.687 11.314-4.687s8.419 1.791 11.314 4.687l80 80c2.896 2.896 4.686 6.896 4.686 11.314 0 8.837-7.164 16-16 16-4.418 0-8.418-1.791-11.314-4.686l-68.686-68.688-20.686 20.688c-2.896 2.896-6.896 4.686-11.314 4.686-8.837 0-16-7.164-16-16 0-4.418 1.791-8.418 4.686-11.314v0z" />
<glyph unicode="&#xe92a;" glyph-name="cashback" d="M976.75 198.4c-10.63 27.406-36.787 46.483-67.4 46.483-3.618 0-7.174-0.267-10.65-0.781l0.393 0.048-217.272-32.178c0.302 2.441 0.474 5.267 0.474 8.133 0 30.272-19.208 56.057-46.101 65.834l-0.487 0.155-178.822 58.584c-14.129 4.754-30.4 7.498-47.311 7.498-17.182 0-33.703-2.832-49.121-8.055l1.078 0.317-128.4-42.8c-6.505 28.974-31.986 50.308-62.46 50.362h-64.006c-35.33-0.040-63.96-28.67-64-63.996v-234.67c0.040-35.33 28.67-63.96 63.996-64h64.004c29.217 0.099 53.809 19.789 61.33 46.616l0.108 0.45 90.886 15.144c2.725 0.482 5.862 0.758 9.064 0.758 8.928 0 17.356-2.143 24.797-5.943l-0.309 0.143 103.584-51.8c19.768-10.159 43.135-16.115 67.892-16.115 17.214 0 33.756 2.879 49.17 8.182l-1.062-0.318 356.156 118.73c28.735 9.785 49.038 36.536 49.038 68.029 0 9.049-1.676 17.707-4.735 25.68l0.166-0.491zM192 53.334c-0.016-11.776-9.558-21.318-21.332-21.334h-64.002c-11.776 0.016-21.318 9.558-21.334 21.332v234.668c0.016 11.776 9.558 21.318 21.332 21.334h64.002c11.776-0.016 21.318-9.558 21.334-21.332v-0.002zM935.822 160.72c-3.417-7.112-9.459-12.507-16.839-14.993l-0.203-0.059-356.144-118.73c-10.323-3.591-22.221-5.665-34.604-5.665-17.805 0-34.609 4.288-49.436 11.887l0.612-0.285-103.584 51.8c-12.665 6.503-27.634 10.315-43.493 10.315-5.706 0-11.297-0.493-16.732-1.44l0.579 0.083-81.312-13.548v177.088l140.364 46.786c10.312 3.534 22.194 5.574 34.552 5.574 12.157 0 23.854-1.974 34.786-5.62l-0.776 0.224 178.178-58.364c10.652-3.948 18.107-14.021 18.107-25.836 0-15.18-12.306-27.486-27.486-27.486-1.744 0-3.45 0.162-5.103 0.473l0.17-0.027-194.416 35.342c-1.097 0.2-2.358 0.314-3.647 0.314-11.782 0-21.334-9.552-21.334-21.334 0-10.376 7.407-19.022 17.222-20.938l0.135-0.022 194.4-35.344c3.767-0.722 8.101-1.136 12.53-1.136 16.495 0 31.652 5.73 43.589 15.308l-0.137-0.106 249.54 36.964c1.263 0.194 2.721 0.305 4.204 0.305 12.39 0 22.973-7.734 27.186-18.638l0.068-0.199c1.187-3.032 1.874-6.542 1.874-10.213 0-4.54-1.052-8.834-2.925-12.653l0.075 0.169zM517.344 602.734c2.76-1.052 5.282-2 7.376-2.922 3.052-1.338 6.562-2.692 10.334-4.136 20.938-8 30.282-13.276 30.282-23.4 0-4.432-4.73-11.312-13.76-15.886-6.4-3.234-29.5-12.094-58.938 9.542-3.489 2.589-7.881 4.144-12.635 4.144-11.782 0-21.332-9.551-21.332-21.332 0-7.027 3.398-13.261 8.64-17.147l0.058-0.041c12.592-9.477 27.583-16.52 43.87-20.107l0.762-0.141v-20.64c0.117-11.693 9.623-21.127 21.333-21.127s21.216 9.434 21.333 21.116v21.771c6.195 1.59 11.574 3.604 16.666 6.113l-0.5-0.223c22.928 11.598 37.168 32.282 37.168 53.958 0 41.2-37.552 55.552-57.73 63.26-3.032 1.162-5.874 2.234-8.322 3.312-2.688 1.188-5.906 2.422-9.458 3.77-20.2 7.672-31.156 13.734-31.156 23.77 0 4.432 4.73 11.312 13.76 15.886 6.4 3.234 29.5 12.094 58.938-9.542 3.468-2.541 7.819-4.065 12.527-4.065 11.781 0 21.332 9.551 21.332 21.332 0 6.98-3.352 13.176-8.534 17.068l-0.055 0.040c-12.594 9.477-27.586 16.518-43.874 20.105l-0.762 0.141v19.312c0.001 0.061 0.001 0.134 0.001 0.207 0 11.782-9.552 21.334-21.334 21.334s-21.334-9.552-21.334-21.334c0-0.073 0-0.145 0.001-0.218v0.011-20.318c-6.198-1.63-11.573-3.68-16.659-6.223l0.493 0.223c-22.928-11.6-37.166-32.276-37.166-53.958-0.002-41.372 39.624-56.424 58.676-63.654zM533.334 384c129.602 0.001 234.664 105.064 234.664 234.666s-105.064 234.666-234.666 234.666c-129.602 0-234.666-105.064-234.666-234.666v0c0.151-129.542 105.125-234.516 234.653-234.666h0.015zM533.334 810.666c106.039 0 192-85.961 192-192s-85.961-192-192-192c-106.039 0-192 85.961-192 192v0c0.125 105.988 86.012 191.875 191.988 192h0.012zM859.584 304.916c3.86-3.861 9.192-6.249 15.083-6.249s11.223 2.388 15.083 6.249l64 64c3.757 3.842 6.075 9.105 6.075 14.909 0 11.781-9.551 21.332-21.332 21.332-5.804 0-11.067-2.318-14.913-6.079l-27.58-27.578v204.5c0.001 0.061 0.001 0.134 0.001 0.207 0 11.782-9.552 21.334-21.334 21.334s-21.334-9.552-21.334-21.334c0-0.073 0-0.145 0.001-0.218v0.011-204.5l-27.584 27.584c-3.877 3.965-9.28 6.423-15.257 6.423-11.781 0-21.332-9.551-21.332-21.332 0-5.977 2.458-11.38 6.419-15.253l0.004-0.004zM832 746.666c11.782 0 21.334 9.552 21.334 21.334v0 128c-0.117 11.693-9.623 21.127-21.333 21.127s-21.216-9.434-21.333-21.116v-128.011c0-11.782 9.55-21.333 21.332-21.334v0zM917.334 661.334c11.782 0 21.334 9.552 21.334 21.334v128c0.001 0.061 0.001 0.134 0.001 0.207 0 11.782-9.552 21.334-21.334 21.334s-21.334-9.552-21.334-21.334c0-0.073 0-0.145 0.001-0.218v0.011-128c0-11.782 9.55-21.333 21.332-21.334v0zM213.334 704c11.782 0 21.334 9.552 21.334 21.334v0 128c0.001 0.061 0.001 0.134 0.001 0.207 0 11.782-9.552 21.334-21.334 21.334s-21.334-9.552-21.334-21.334c0-0.073 0-0.145 0.001-0.218v0.011-128c0-11.782 9.55-21.333 21.332-21.334v0zM128 576c11.782 0 21.334 9.552 21.334 21.334v0 128c-0.117 11.693-9.623 21.127-21.333 21.127s-21.216-9.434-21.333-21.116v-128.011c0-11.782 9.55-21.333 21.332-21.334v0z" />
<glyph unicode="&#xe92b;" glyph-name="customer-service" d="M831.017 68.129l-38.235 114.721c-13.362 40.052-47.451 69.615-89.005 77.18l-110.377 20.084v8.555c19.208 11.148 35.923 26.062 49.235 43.718h33.346c27.318 0 49.548 22.231 49.548 49.548v198.194c0 118.388-96.322 214.71-214.71 214.71s-214.71-96.322-214.71-214.71v-115.613c0-31.843 22.644-58.484 52.67-64.694 9.266-47.467 38.929-87.635 79.459-111.154v-8.555l-110.394-20.084c-41.538-7.564-75.644-37.128-88.989-77.18l-6.606-19.836-56.254 56.254c-6.441 6.441-6.441 16.929 0 23.37l65.239 65.222-122.451 122.451-73.728-73.728c-21.834-21.834-33.858-50.87-33.858-81.755s12.024-59.904 33.858-81.738l223.215-223.215c21.834-21.834 50.87-33.875 81.755-33.875s59.904 12.040 81.226 33.379l80.45 73.711-25.088 25.038h354.403zM692.497 381.935c0-9.117-7.416-16.516-16.516-16.516h-13.89c4.79 10.917 8.423 22.429 10.769 34.403 7.069 1.47 13.576 4.278 19.638 7.812v-25.699zM675.98 436.075v56.882c9.827-5.731 16.516-16.268 16.516-28.441s-6.689-22.71-16.516-28.441zM345.658 436.075c-9.827 5.731-16.516 16.268-16.516 28.441s6.689 22.71 16.516 28.441v-56.882zM345.658 547.097v-18.861c-5.88-1.536-11.396-3.848-16.516-6.838v58.731c0 100.17 81.507 181.677 181.677 181.677s181.677-81.507 181.677-181.677v-58.731c-5.12 2.989-10.636 5.318-16.516 6.838v18.861h-16.516c-48.838 0-94.753 19.027-129.305 53.562l-19.34 19.34-19.34-19.34c-34.552-34.535-80.467-53.562-129.305-53.562h-16.516zM378.69 431.484v83.208c49.598 3.733 95.843 24.196 132.129 58.698 36.286-34.502 82.531-54.982 132.129-58.698v-83.208c0-24.081-6.573-46.609-17.87-66.065h-114.259v-33.032h87.106c-23.288-20.497-53.727-33.032-87.106-33.032-72.853 0-132.129 59.276-132.129 132.129zM560.367 273.937v-0.776l-49.548-49.548-49.548 49.548v0.776c15.657-4.922 32.289-7.614 49.548-7.614s33.891 2.692 49.548 7.614zM260.17 172.412c9.53 28.606 33.891 49.73 63.571 55.147l115.448 20.975 71.63-71.63 71.614 71.614 115.431-20.975c29.679-5.417 54.041-26.525 63.571-55.147l23.767-71.234h-341.62l-64.33 64.33-71.482-64.661c-6.227-6.26-17.111-6.26-23.354 0l-36.071 36.071 11.826 35.51zM108.767 383.604l75.743-75.743-17.937-17.937-75.743 75.743 17.937 17.937zM398.377-6.805c-15.591-15.558-36.335-24.163-58.385-24.163s-42.793 8.605-58.401 24.196l-223.215 223.199c-15.591 15.591-24.18 36.335-24.18 58.385 0 22.066 8.588 42.81 24.18 58.401l9.084 9.084 75.743-75.743-0.595-0.595c-19.307-19.324-19.307-50.754 0-70.078l118.437-118.437c9.365-9.348 21.801-14.518 35.047-14.518s25.683 5.153 34.436 13.94l1.239 1.107 76.090-76.090-9.48-8.687zM432.235 24.246l-75.925 75.925 21.818 19.72 75.793-75.793-21.686-19.852zM973.271 960h-231.226c-27.318 0-49.548-22.231-49.548-49.548v-132.129c0-27.318 22.231-49.548 49.548-49.548h44.115l-17.078-99.609 159.381 99.609h44.808c27.318 0 49.548 22.231 49.548 49.548v132.129c0 27.318-22.231 49.548-49.548 49.548zM989.787 778.323c0-9.1-7.416-16.516-16.516-16.516h-54.289l-104.894-65.553 11.247 65.553h-83.291c-9.1 0-16.516 7.416-16.516 16.516v132.129c0 9.1 7.416 16.516 16.516 16.516h231.226c9.1 0 16.516-7.416 16.516-16.516v-132.129zM758.561 893.935h198.194v-33.032h-198.194v33.032zM758.561 827.871h132.129v-33.032h-132.129v33.032zM923.722 827.871h33.032v-33.032h-33.032v33.032zM510.819 910.452c-215.8 0-401.689-149.273-450.015-357.492l-31.298 52.174-28.325-16.995 58.054-96.735 96.735 58.054-16.995 28.325-44.759-26.855c46.807 190.481 218.095 326.491 416.603 326.491 43.388 0 86.198-6.441 127.24-19.159l9.778 31.546c-44.214 13.708-90.31 20.645-137.018 20.645zM1014.792 594.3l-96.735 58.054-58.038-96.751 28.325-16.995 28.903 48.178c15.211-44.511 22.99-91.070 22.99-138.785 0-98.221-34.023-194.246-95.777-270.369l25.65-20.81c66.527 81.986 103.16 185.41 103.16 291.179 0 50.523-8.142 99.857-24.014 147.093l48.541-29.118 16.995 28.325z" />
<glyph unicode="&#xe92c;" glyph-name="phone-1" d="M829.442 405.332c-9.386 0-19.2 2.986-28.586 5.12-19.010 4.188-37.689 9.751-55.894 16.64-19.794 7.201-41.552 6.828-61.086-1.049-19.534-7.879-35.465-22.7-44.728-41.617l-9.386-19.2c-41.558 23.118-79.745 51.829-113.494 85.332-33.503 33.749-62.214 71.938-85.332 113.494l17.92 11.946c18.915 9.263 33.739 25.194 41.615 44.728 7.877 19.536 8.251 41.292 1.051 61.086-6.775 18.244-12.333 36.915-16.64 55.894-2.134 9.386-3.84 19.2-5.12 29.013-5.181 30.054-20.922 57.27-44.39 76.747-23.466 19.477-53.117 29.936-83.61 29.493h-128c-18.388 0.173-36.598-3.619-53.389-11.116s-31.77-18.524-43.916-32.331-21.175-30.068-26.472-47.677c-5.297-17.609-6.737-36.154-4.223-54.369 22.73-178.747 104.364-344.828 232.006-472.007 127.644-127.179 294.019-208.208 472.848-230.287h16.212c31.463-0.045 61.841 11.497 85.334 32.426 13.498 12.073 24.281 26.874 31.635 43.422 7.354 16.55 11.114 34.47 11.031 52.578v128c-0.522 29.639-11.315 58.175-30.534 80.74-19.22 22.567-45.677 37.761-74.852 42.994zM850.776 149.332c-0.008-6.058-1.307-12.044-3.807-17.562s-6.15-10.441-10.701-14.438c-4.768-4.116-10.342-7.191-16.366-9.028s-12.368-2.394-18.62-1.638c-159.791 20.488-308.214 93.59-421.857 207.774s-186.040 262.953-205.77 422.838c-0.679 6.25-0.084 12.573 1.75 18.587 1.833 6.013 4.867 11.593 8.917 16.401 3.998 4.551 8.92 8.199 14.437 10.7s11.505 3.799 17.563 3.807h128c9.923 0.221 19.61-3.024 27.398-9.176 7.786-6.152 13.187-14.827 15.268-24.53 1.708-11.663 3.84-23.183 6.4-34.56 4.93-22.491 11.489-44.595 19.628-66.134l-59.734-27.734c-5.108-2.343-9.701-5.671-13.519-9.796-3.817-4.123-6.783-8.96-8.724-14.234-1.944-5.272-2.824-10.877-2.595-16.49 0.229-5.616 1.565-11.129 3.932-16.226 61.405-131.531 167.135-237.261 298.666-298.666 10.387-4.268 22.039-4.268 32.426 0 5.321 1.903 10.211 4.844 14.387 8.653 4.174 3.809 7.551 8.409 9.933 13.533l26.454 59.734c22.057-7.889 44.569-14.442 67.414-19.628 11.377-2.56 22.897-4.692 34.56-6.4 9.703-2.081 18.377-7.479 24.529-15.268 6.152-7.786 9.398-17.476 9.177-27.398z" />
<glyph unicode="&#xe92d;" glyph-name="insurance" d="M608 960h-490.667c-64.853 0-117.333-52.48-117.333-117.333v-661.333c0-64.853 52.48-117.333 117.333-117.333h347.733c-35.84 56.747-59.733 123.733-59.733 200.533v104.107c-6.4-3.84-13.653-5.973-21.333-5.973h-213.333c-23.467 0-42.667 19.2-42.667 42.667s19.2 42.667 42.667 42.667h213.333c8.107 0 15.36-2.133 21.76-5.973 1.707 36.267 18.773 69.547 45.653 91.307h-280.747c-23.467 0-42.667 19.2-42.667 42.667s19.2 42.667 42.667 42.667h384c17.92 0 33.28-11.093 39.68-26.88l121.6 41.387c2.987 1.28 5.973 2.133 9.387 2.56v206.933c0 64.853-52.48 117.333-117.333 117.333zM341.333 704h-170.667c-23.467 0-42.667 19.2-42.667 42.667s19.2 42.667 42.667 42.667h170.667c23.467 0 42.667-19.2 42.667-42.667s-19.2-42.667-42.667-42.667zM995.072 476.203l-224 76.203c-8.917 3.029-18.603 3.029-27.52 0l-224-76.203c-17.28-5.888-28.928-22.144-28.928-40.405v-171.435c0-216.192 239.744-320.64 249.941-324.992 5.376-2.261 11.093-3.371 16.768-3.371s11.392 1.109 16.725 3.413c10.197 4.352 249.941 108.757 249.941 324.949v171.435c0 18.304-11.605 34.517-28.928 40.405zM908.8 315.733l-128-170.667c-7.424-9.899-18.731-16.085-31.104-16.939-1.024-0.085-2.048-0.128-3.029-0.128-11.307 0-22.144 4.437-30.165 12.501l-85.333 85.333c-16.683 16.683-16.683 43.648 0 60.331s43.648 16.683 60.331 0l50.56-50.56 98.475 131.328c14.123 18.816 40.875 22.699 59.691 8.533 18.901-14.123 22.741-40.875 8.576-59.733z" />
<glyph unicode="&#xe92e;" glyph-name="rating" d="M440.302 646.408l71.698 29.726 71.7-29.726c9.606-3.966 20.638-2.712 29.12 3.44 8.44 6.142 13.080 16.242 12.26 26.644l-6.1 77.374 50.42 59.030c6.78 7.922 8.94 18.824 5.72 28.746-3.22 9.942-11.38 17.484-21.54 19.904l-75.46 18.124-40.54 66.192c-10.792 18.852-40.37 18.85-51.16 0l-40.54-66.192-75.46-18.124c-10.16-2.42-18.32-9.962-21.54-19.904-3.22-9.922-1.060-20.824 5.72-28.746l50.42-59.030-6.1-77.374c-0.82-10.402 3.82-20.504 12.26-26.644 8.462-6.12 19.482-7.44 29.122-3.44zM1022.534 723.622c-3.22 9.942-11.38 17.484-21.54 19.904l-75.46 18.124-40.54 66.192c-5.46 8.902-15.14 14.322-25.58 14.322s-20.12-5.422-25.58-14.322l-40.54-66.192-75.46-18.124c-10.16-2.42-18.32-9.962-21.54-19.904-3.22-9.922-1.060-20.824 5.72-28.746l50.42-59.030-6.1-77.374c-0.82-10.402 3.82-20.504 12.26-26.644 8.46-6.122 19.48-7.442 29.12-3.44l71.7 29.726 71.7-29.726c9.606-3.966 20.638-2.712 29.12 3.44 8.44 6.142 13.080 16.242 12.26 26.644l-6.1 77.374 50.42 59.030c6.78 7.922 8.94 18.824 5.72 28.746zM247.766 526.106c6.24 0 12.42 1.94 17.64 5.72 8.44 6.142 13.080 16.242 12.26 26.644l-6.1 77.374 50.42 59.030c6.78 7.922 8.94 18.824 5.72 28.746-3.22 9.942-11.38 17.484-21.54 19.904l-75.46 18.124-40.54 66.192c-5.46 8.902-15.14 14.322-25.58 14.322s-20.12-5.422-25.58-14.322l-40.54-66.192-75.46-18.124c-10.16-2.42-18.32-9.962-21.54-19.904-3.22-9.922-1.060-20.824 5.72-28.746l50.42-59.030-6.1-77.374c-0.82-10.402 3.82-20.504 12.26-26.644 8.46-6.122 19.48-7.442 29.12-3.44l71.7 29.726 71.7-29.726c3.7-1.52 7.6-2.28 11.48-2.28zM865.16 238.36l-35.5-203.46c-8.92-50.94-53.14-88.1-104.84-88.1h-204.74c-14.3 0-28.32 2.86-41.3 8.2-12.98 5.4-24.92 13.28-35.020 23.4-0.62 0.62-1.26 1.24-1.9 1.86v337.96l1.36 0.48c28.86 10.36 51.36 33.48 60.88 62.64l42.020 134.46c7.1 21.7 30.42 33.52 52.14 26.42 39.76-12.96 65.040-49.92 65.040-89.58 0-9.72-1.52-19.6-4.72-29.32l-26.88-88.2h152.14c51.28 0 90.16-46.26 81.32-96.76zM352.036-64h-138.87c-16.474 0-29.828 13.354-29.828 29.828v359.65c0 16.474 13.354 29.828 29.828 29.828h138.87c16.474 0 29.828-13.354 29.828-29.828v-359.65c0-16.474-13.354-29.828-29.828-29.828z" />
<glyph unicode="&#xe92f;" glyph-name="check" d="M346.136 205.018c-30.283 34.022-54.746 67.302-78.376 99.533-20.172 27.080-38.795 57.747-54.432 90.127l-1.476 3.39c-9.76 19.958-14.080 40.168 7.061 53.162 60.587 37.234 73.003 1.682 105.934-39.57 19.52-24.443 48.304-64.75 66.339-90.218 17.227-24.32 38.229 19.574 46.613 31.96 29.798 44.018 107.246 151.781 139.251 191.614 30.384 37.814 128.456 143.75 146.738 160.6 15.562 14.347 48.418 45.816 70.512 28.456 23.218-18.24 34.56-52.912 18.24-75.456-28.422-39.248-73.067-76.584-103.958-113.955-62.531-75.648-121.733-157.19-178.56-238.381-19.31-27.59-46.422-73.8-63.254-103.722-31.486-55.976-59.142-66.629-120.63 2.459z" />
<glyph unicode="&#xe930;" glyph-name="save-money-1" d="M835.33 550.724h-381.462c17.639 20.276 28.357 46.725 28.357 75.647 0 63.646-51.778 115.424-115.424 115.424s-115.424-51.778-115.424-115.424c0-28.922 10.718-55.371 28.355-75.647h-91.059c-55.026 0-99.793-44.767-99.793-99.793v-117.754c0-11.023 8.935-19.959 19.959-19.959s19.959 8.935 19.959 19.959v117.754c0 33.015 26.86 59.876 59.876 59.876h558.84c33.015 0 59.876-26.86 59.876-59.876v-107.776h-207.569c-55.026 0-99.793-44.767-99.793-99.793s44.767-99.793 99.793-99.793h207.569v-107.776c0-33.015-26.86-59.876-59.876-59.876h-558.84c-33.015 0-59.876 26.86-59.876 59.876v117.911c0 11.023-8.935 19.959-19.959 19.959s-19.959-8.935-19.959-19.959v-117.911c0-55.026 44.767-99.793 99.793-99.793h646.657c55.026 0 99.793 44.767 99.793 99.793v415.138c0 55.026-44.767 99.793-99.793 99.793zM366.8 701.876c41.636 0 75.507-33.872 75.507-75.507s-33.872-75.507-75.507-75.507c-41.634 0-75.507 33.872-75.507 75.507s33.872 75.507 75.507 75.507zM827.292 510.807h8.037c33.015 0 59.876-26.86 59.876-59.876v-107.776h-47.901v107.776c0 22.447-7.455 43.184-20.012 59.876zM539.943 243.362c0 33.015 26.86 59.876 59.876 59.876h295.387v-119.751h-295.387c-33.015 0-59.876 26.86-59.876 59.876zM835.33-24.083h-8.037c12.558 16.691 20.012 37.426 20.012 59.876v107.776h47.901v-107.776c0-33.015-26.86-59.876-59.876-59.876zM594.709 263.322c-5.269 0-10.418-2.136-14.131-5.848s-5.828-8.862-5.828-14.111 2.116-10.398 5.828-14.111c3.732-3.712 8.862-5.848 14.131-5.848 5.249 0 10.378 2.136 14.111 5.848 3.712 3.712 5.848 8.862 5.848 14.111s-2.136 10.398-5.848 14.111c-3.712 3.714-8.862 5.848-14.111 5.848zM657.202 685.25c63.646 0 115.424 51.778 115.424 115.424 0 63.644-51.778 115.424-115.424 115.424s-115.424-51.778-115.424-115.424 51.778-115.424 115.424-115.424zM657.202 876.18c41.634 0 75.507-33.872 75.507-75.507s-33.872-75.507-75.507-75.507-75.507 33.872-75.507 75.507 33.872 75.507 75.507 75.507zM462.266 763.246c11.023 0 19.959 8.935 19.959 19.959v156.836c0 11.023-8.935 19.959-19.959 19.959s-19.959-8.935-19.959-19.959v-156.836c0-11.023 8.935-19.959 19.959-19.959zM366.465 832.265c11.023 0 19.959 8.935 19.959 19.959v87.818c0 11.023-8.935 19.959-19.959 19.959s-19.959-8.935-19.959-19.959v-87.818c0-11.023 8.935-19.959 19.959-19.959zM108.838 223.405c5.249 0 10.398 2.136 14.111 5.848s5.848 8.862 5.848 14.111-2.136 10.398-5.848 14.111-8.842 5.848-14.111 5.848c-5.249 0-10.398-2.136-14.111-5.848s-5.848-8.862-5.848-14.111 2.136-10.398 5.848-14.111 8.86-5.848 14.111-5.848z" />
<glyph unicode="&#xe931;" glyph-name="bar-chart" d="M672.096 708h67.904v-628c0.009-15.46 12.54-27.991 27.999-28h128.001c15.46 0.009 27.991 12.54 28 27.999v628.001h67.904c15.484 0.008 28.034 12.563 28.034 28.048 0 6.849-2.455 13.125-6.533 17.996l0.036-0.044-159.936 191.92c-5.169 6.176-12.881 10.076-21.504 10.076s-16.335-3.9-21.468-10.033l-0.036-0.044-160-192c-4.002-4.814-6.431-11.059-6.431-17.872 0-15.485 12.548-28.038 28.030-28.048h0.001zM832 884.272l100.224-120.272h-36.224c-15.46-0.009-27.991-12.54-28-27.999v-628.001h-72v628c-0.009 15.46-12.54 27.991-27.999 28h-36.225zM528 52h128c15.464 0 28 12.536 28 28v0 544c0 15.464-12.536 28-28 28v0h-128c-15.464 0-28-12.536-28-28v0-544c0-15.464 12.536-28 28-28v0zM556 596h72v-488h-72zM416 492h-128c-15.464 0-28-12.536-28-28v0-384c0-15.464 12.536-28 28-28v0h128c15.464 0 28 12.536 28 28v0 384c0 15.464-12.536 28-28 28v0zM388 108h-72v328h72zM48 332c-15.464 0-28-12.536-28-28v0-224c0-15.464 12.536-28 28-28v0h128c15.464 0 28 12.536 28 28v0 224c0 15.464-12.536 28-28 28v0zM148 108h-72v168h72zM990.992-4h-958.992c-15.464 0-28-12.536-28-28s12.536-28 28-28v0h958.992c15.464 0 28 12.536 28 28s-12.536 28-28 28v0zM260 784c0.009-15.46 12.54-27.991 27.999-28h60.401l-320.208-320.192c-5.067-5.067-8.201-12.068-8.201-19.8 0-15.465 12.537-28.001 28.001-28.001 7.732 0 14.733 3.134 19.8 8.201l320.208 320.192v-60.4c0-15.464 12.536-28 28-28s28 12.536 28 28v0 128c-0.009 15.46-12.54 27.991-27.999 28h-128.001c-15.46-0.009-27.991-12.54-28-27.999v-0.001zM32 756h112c15.464 0 28 12.536 28 28s-12.536 28-28 28v0h-112c-15.464 0-28-12.536-28-28s12.536-28 28-28v0zM32 868h240c15.464 0 28 12.536 28 28s-12.536 28-28 28v0h-240c-15.464 0-28-12.536-28-28s12.536-28 28-28v0z" />
<glyph unicode="&#xe932;" glyph-name="home-insurance" d="M475.429 205.403v96.311h-128c-10.099 0-18.286-8.187-18.286-18.286v-347.429h292.571v61.147l-62.885 45.367c-52.297 37.794-83.31 98.365-83.401 162.889zM658.286-64h48.183l-48.183 34.761zM475.429 808.832l-365.714-284.325v-570.222c0-10.099 8.187-18.286 18.286-18.286h164.571v347.429c0 30.297 24.56 54.857 54.857 54.857h128v154.222c0.004 7.267 4.311 13.843 10.971 16.75l239.543 104.832-250.514 194.743zM486.656 846.446l278.126-216.265c3.523 0.792 7.203 0.492 10.551-0.859l175.543-76.8v32.914l-102.235 79.525c-0.128 0-0.293 0.128-0.421 0.219l-372.791 289.938-475.429-369.792v-100.023l464.201 361.143c6.604 5.137 15.851 5.137 22.455 0zM146.286 745.417l109.714 85.339v74.386h-109.714zM585.143 432.731v-227.328c0.056-29.276 14.129-56.755 37.851-73.911l145.006-104.594 145.006 104.613c23.736 17.136 37.813 44.617 37.851 73.893v227.328l-182.857 80.037-182.857-80.037zM887.863 408.357c4.035-2.691 6.836-6.875 7.786-11.632s-0.029-9.696-2.721-13.73l-146.286-219.429c-2.946-4.413-7.663-7.329-12.928-7.991-0.757-0.103-1.521-0.152-2.286-0.146-4.518 0.001-8.876 1.675-12.233 4.699l-73.143 65.829c-5.005 4.331-7.279 11.029-5.946 17.512s6.066 11.74 12.375 13.744c6.308 2.004 13.207 0.442 18.037-4.083l57.435-51.675 134.546 201.838c2.691 4.035 6.875 6.836 11.632 7.786s9.696-0.029 13.73-2.721zM512 480.549v-275.145c0.084-52.771 25.444-102.308 68.206-133.23l187.794-135.461 187.794 135.461c42.762 30.922 68.122 80.459 68.206 133.23v275.145l-256 112.055-256-112.055zM976.457 461.422c6.661-2.907 10.968-9.482 10.971-16.75v-239.269c-0.062-41.020-19.781-79.526-53.029-103.552l-155.703-112.329c-6.387-4.607-15.007-4.607-21.394 0l-155.703 112.311c-33.253 24.030-52.972 62.543-53.029 103.57v239.269c0.004 7.267 4.311 13.843 10.971 16.75l201.143 88.064c4.664 2.035 9.965 2.035 14.629 0l201.143-88.064z" />
<glyph unicode="&#xe933;" glyph-name="life-insurance-1" d="M637.454 449.15c-17.104 596.569-235.012 594.977-251.819 0.16 35.622 22.913 79.113 36.528 125.783 36.528 46.776 0 90.357-13.676 126.964-37.248l-0.929 0.56zM953.824 460.175c-4.709 216.675-163.838 394.815-371.476 428.987l-2.576 0.35c7.009-10.375 13.776-22.322 19.605-34.795l0.687-1.636c42.596-89.638 67.632-259.775 69.346-404.090 35.743 23.161 79.441 36.93 126.355 36.93 49.161 0 94.791-15.12 132.493-40.963l-0.8 0.518c2.776-2.289 6.368-3.677 10.285-3.677 8.96 0 16.224 7.264 16.224 16.224 0 0.759-0.052 1.505-0.153 2.236l0.010-0.085zM353.677 448.832c5.216 166.388 23.568 332.709 89.641 440.68-212.699-34.633-373.13-216.881-373.412-436.655v-0.030c2.223-6.489 8.27-11.070 15.387-11.070 3.94 0 7.551 1.404 10.362 3.738l-0.027-0.021c36.932 25.118 82.513 40.104 131.595 40.104 46.923 0 90.646-13.696 127.391-37.31l-0.937 0.564zM403.212 172.886c-3.889 6.591-7.451 14.241-10.262 22.245l-0.283 0.925c-4.642-3.185-9.573-8.299-14.86-11.505-23.869-16.49-53.425-26.339-85.281-26.339-38.449 0-73.546 14.348-100.23 37.982l0.159-0.138c-49.017-26.492-126.612-110.196-86.439-169.37 11.826-16.206 30.735-26.631 52.081-26.684h186.793c-46.583 58.497 7.079 137.087 58.321 172.885zM292.486 427.899c-116.64 0.201-162.279-153.113-66.954-217.141 76.208-54.996 189.469 5.73 185.829 100.341-1.328 64.693-54.009 116.647-118.86 116.8h-0.015zM663.498 210.758c18.779-12.995 42.040-20.758 67.114-20.758 65.652 0 118.873 53.221 118.873 118.873s-53.221 118.873-118.873 118.873c-23.129 0-44.715-6.606-62.975-18.033l0.499 0.291c-33.791-21.496-55.886-58.746-55.886-101.158 0-40.456 20.104-76.216 50.867-97.835l0.381-0.254zM830.631 196.056c-26.596-23.42-61.72-37.713-100.183-37.713s-73.588 14.294-100.353 37.859l0.168-0.145c-2.717-14.642-18.118-21.424-0.797-30.362 46.226-36.664 93.146-111.126 48.733-165.695h186.786c21.355 0.054 40.263 10.478 51.962 26.501l0.127 0.183c40.13 59.224-37.224 142.74-86.443 169.37zM609.492 140.768c-9.838 9.694-10.822 5.222-19.494-2.233-21.291-17.199-48.688-27.609-78.516-27.609-29.915 0-57.385 10.471-78.944 27.948l0.234-0.184c-8.498 7.539-9.73 11.238-19.177 2.080-28.884-24.125-65.863-67.663-50.808-108.813 7.941-18.915 26.31-31.957 47.725-31.957 0.017 0 0.035 0 0.052 0h201.963c0.012 0 0.026 0 0.041 0 21.418 0 39.79 13.042 47.607 31.617l0.127 0.34c15.077 41.141-22.145 84.439-50.811 108.81zM418.232 236.003c3.929-123.277 182.672-123.326 186.626-0.002-3.91 123.3-182.707 123.305-186.626 0.002z" />
<glyph unicode="&#xe934;" glyph-name="insurance-1" d="M768 458.667c0 31.189-19.285 57.899-46.507 69.077l-41.003 102.485c-17.92 44.8-60.672 73.771-108.928 73.771h-119.125c-48.256 0-91.008-28.971-108.928-73.771l-41.003-102.485c-27.221-11.179-46.507-37.888-46.507-69.077v-117.333c0-35.371 28.629-64 64-64s64 28.629 64 64v21.333h256v-21.333c0-35.371 28.629-64 64-64s64 28.629 64 64zM452.437 640h119.125c21.931 0 41.387-13.184 49.536-33.536l29.227-73.131h-276.651l29.269 73.131c8.107 20.352 27.563 33.536 49.493 33.536zM512-64c-3.755 0-7.509 0.512-11.179 1.493-4.181 1.152-415.488 117.504-415.488 513.707v320.043c0 17.707 10.923 33.579 27.52 39.893l384 146.091c9.771 3.712 20.565 3.712 30.336 0l384-146.091c16.555-6.315 27.477-22.187 27.477-39.893v-320.043c0-396.245-411.307-512.597-415.488-513.707-3.669-0.981-7.424-1.493-11.179-1.493zM170.667 741.845v-290.645c0-300.672 280.064-408.064 341.333-427.947 61.269 19.883 341.333 127.275 341.333 427.947v290.645l-341.333 129.835z" />
<glyph unicode="&#xe935;" glyph-name="health-insurance" d="M671.573 960c-79.36 0-152.32-32.853-202.24-88.32-49.92 55.467-122.88 88.32-202.24 88.32-147.2 0-267.093-114.773-267.093-256 0-361.387 429.227-622.933 447.573-634.027 6.4-3.84 14.080-5.973 21.76-5.973 3.84 0 7.253 0.427 11.093 1.707-32.427 53.76-53.76 116.48-53.76 188.16v171.093c0 50.347 32 95.147 79.787 111.36l223.573 75.947c24.32 8.533 51.627 8.533 75.947 0l114.347-38.827c11.52 41.813 18.347 85.333 18.347 130.56 0 141.227-119.893 256-267.093 256zM1002.283 455.424l-224 76.203c-6.656 2.304-13.909 2.304-20.565 0l-224-76.203c-13.013-4.395-21.717-16.555-21.717-30.293v-171.435c0-209.237 233.557-310.955 243.499-315.179 8.021-3.371 16.981-3.371 25.003 0 9.941 4.267 243.499 105.941 243.499 315.179v171.435c0 13.739-8.704 25.899-21.717 30.293zM908.203 293.632l-117.333-149.333c-14.933-19.072-42.923-21.845-61.312-6.059l-74.667 64c-17.92 15.317-20.011 42.283-4.608 60.16 15.317 17.877 42.283 19.925 60.117 4.608l40.875-35.029 89.813 114.304c14.549 18.517 41.344 21.803 59.904 7.168 18.56-14.464 21.803-41.301 7.211-59.819z" />
<glyph unicode="&#xe936;" glyph-name="check-mark" d="M738.328 610.461c15.625-15.625 15.625-40.953 0-56.57l-268.344-268.352c-15.625-15.617-40.945-15.617-56.57 0l-127.742 127.75c-15.625 15.617-15.625 40.945 0 56.563 15.617 15.625 40.945 15.625 56.563 0l99.461-99.461 240.063 240.070c15.625 15.617 40.953 15.617 56.57 0zM1024 448c0-283.008-229.031-512-512-512-283.008 0-512 229.031-512 512 0 283.008 229.031 512 512 512 283.008 0 512-229.031 512-512zM944 448c0 238.789-193.242 432-432 432-238.789 0-432-193.242-432-432 0-238.789 193.242-432 432-432 238.789 0 432 193.242 432 432z" />
<glyph unicode="&#xe937;" glyph-name="play-1" d="M217.828 937.422c-92.319 52.956-167.166 9.574-167.166-96.819v-785.131c0-106.499 74.847-149.825 167.166-96.919l686.243 393.556c92.351 52.974 92.351 138.801 0 191.763l-686.243 393.55z" />
<glyph unicode="&#xe938;" glyph-name="talk" d="M350.78 333.604h216.894c8.924 0 16.168 7.243 16.168 16.168s-7.243 16.168-16.168 16.168h-216.894c-8.924 0-16.168-7.243-16.168-16.168s7.242-16.168 16.168-16.168zM487.273 349.773v-389.259c0-8.926 7.243-16.168 16.168-16.168 8.914 0 16.168 7.243 16.168 16.168v389.259c0 8.926-7.254 16.168-16.168 16.168-8.924 0-16.168-7.243-16.168-16.168zM141.021 951.658c-62.927 0-114.030-51.103-114.030-114.040s51.103-114.030 114.030-114.030c62.939 0 114.042 51.091 114.042 114.030s-51.103 114.040-114.042 114.040zM141.021 919.321c45.099 0 81.705-36.606 81.705-81.704 0-45.089-36.606-81.693-81.705-81.693-45.089 0-81.693 36.604-81.693 81.693 0 45.099 36.606 81.704 81.693 81.704zM882.979 951.658c-62.939 0-114.042-51.103-114.042-114.040s51.103-114.030 114.042-114.030c62.927 0 114.030 51.091 114.030 114.030s-51.103 114.040-114.030 114.040zM882.979 919.321c45.089 0 81.693-36.606 81.693-81.704 0-45.089-36.604-81.693-81.693-81.693-45.099 0-81.705 36.604-81.705 81.693 0 45.099 36.606 81.704 81.705 81.704zM230.142 491.58c2.673-5.39 8.214-8.978 14.477-8.978l6.004 1.165 148.878 59.51c22.916 9.151 48.947-2.005 58.11-24.921 9.151-22.905-2.015-48.937-24.921-58.098l-196.618-78.589c-18.788-7.512-40.066-1.434-52.106 14.347-4.203 5.509-11.459 7.729-18.033 5.509-6.564-2.22-10.984-8.386-10.984-15.317v-81.198c0-8.214 6.155-15.113 14.304-16.061l130.867-15.113c30.925-3.568 54.272-29.76 54.272-60.901v-252.422c0-8.926 7.243-16.168 16.168-16.168s16.168 7.243 16.168 16.168v252.422c0 47.568-35.656 87.569-82.901 93.022l-116.543 13.462v33.761c18.648-8.569 40.551-9.626 60.783-1.542l196.63 78.589c39.472 15.791 58.714 60.653 42.933 100.137s-60.643 58.724-100.125 42.943l-136.204-54.444-78.244 128.064c-11.048 18.087-29.060 30.817-49.788 35.204-0.636 0.129-1.271 0.269-1.919 0.399-21.72 4.592-44.367-0.409-62.131-13.721-17.764-13.324-28.92-33.652-30.602-55.792-9.507-125.1-28.575-375.819-28.575-375.819-0.034-0.409-0.044-0.818-0.044-1.229 0-47.514 35.582-87.481 82.76-93l116.681-15.069v-167.386c0-8.926 7.243-16.168 16.168-16.168s16.168 7.243 16.168 16.168v181.602c0 8.138-6.036 14.994-14.1 16.039l-131.072 16.912c-30.709 3.546-53.939 29.395-54.272 60.244 0 0.086 28.521 375.258 28.521 375.258 0.981 12.838 7.448 24.64 17.754 32.359 10.316 7.729 23.445 10.628 36.055 7.965l1.907-0.399c12.030-2.545 22.474-9.939 28.888-20.427 24.458-40.033 74.029-121.177 83.699-137.012 0.328-0.516 0.651-1.011 0.986-1.474zM101.775 468.061l51.955-85.056c19.585-32.056 59.446-45.314 94.337-31.366 8.288 3.309 12.331 12.73 9.012 21.008-3.309 8.288-12.73 12.331-21.008 9.022-20.242-8.096-43.374-0.409-54.747 18.195l-51.954 85.056c-4.657 7.61-14.617 10.013-22.226 5.368-7.612-4.658-10.027-14.617-5.37-22.227zM757.739 494.361l-156.554-22.14c-42.103-5.95-71.442-44.969-65.492-87.072 5.95-42.091 44.969-71.442 87.072-65.492l192.545 27.239c7.492 1.057 14.691 3.191 21.407 6.285v-33.759l-116.543-13.462c-47.245-5.455-82.901-45.454-82.901-93.022v-252.422c0-8.926 7.243-16.168 16.168-16.168s16.168 7.243 16.168 16.168v252.422c0 31.14 23.347 57.334 54.272 60.901l130.791 15.113c8.096 0.884 14.379 7.739 14.379 16.061v81.208c0 6.931-4.42 13.085-10.984 15.305-6.564 2.232-13.819 0.010-18.033-5.497-7.081-9.271-17.569-15.468-29.254-17.118l-192.545-27.227c-24.436-3.459-47.072 13.57-50.522 38.006-3.459 24.426 13.57 47.060 37.996 50.522l164.067 23.196-2.22-0.15 13.797 7.739 87.481 143.199c11.188 18.303 31.679 28.811 53.076 27.195 0.303-0.022 0.593-0.042 0.894-0.064 28.823-2.178 51.49-25.525 52.806-54.39l16.049-351.307c-0.172-30.979-23.455-56.989-54.272-60.557l-128.345-14.822c-8.074-0.927-14.196-7.707-14.304-15.834l-2.523-183.673c-0.118-8.926 7.027-16.266 15.943-16.394 8.926-0.118 16.266 7.027 16.394 15.953l2.318 169.467 114.225 13.183c47.245 5.455 82.901 45.466 82.901 93.022 0 0.249-0.010 0.495-0.022 0.744 0 0-10.715 234.592-16.061 351.695-2.070 45.207-37.553 81.758-82.674 85.155-0.303 0.022-0.604 0.054-0.894 0.076-33.5 2.523-65.59-13.926-83.105-42.588zM664.727 903.153c0 12.859-5.11 25.202-14.206 34.298-9.098 9.098-21.428 14.206-34.298 14.206h-225.572c-26.796 0-48.506-21.72-48.506-48.504v-205.49c0-10.563 6.165-20.156 15.78-24.532s20.9-2.727 28.866 4.215c15.554 13.549 37.468 32.65 49.68 43.298 2.954 2.565 6.726 3.977 10.628 3.977h169.122c12.87 0 25.202 5.11 34.298 14.206 9.097 9.098 14.206 21.44 14.206 34.298v130.027zM374.482 709.509v193.644c0 8.924 7.233 16.168 16.168 16.168h225.572c4.29 0 8.407-1.703 11.437-4.743 3.028-3.028 4.733-7.135 4.733-11.425v-130.027c0-4.29-1.703-8.397-4.733-11.425-3.028-3.040-7.147-4.743-11.437-4.743h-169.12c-11.717 0-23.034-4.235-31.874-11.932zM431.406 851.5h146.507c8.926 0 16.168 7.243 16.168 16.168s-7.243 16.168-16.168 16.168h-146.507c-8.924 0-16.168-7.243-16.168-16.168s7.242-16.168 16.168-16.168zM431.406 792.538h72.035c8.914 0 16.168 7.243 16.168 16.168s-7.254 16.168-16.168 16.168h-72.035c-8.924 0-16.168-7.243-16.168-16.168-0.002-8.924 7.242-16.168 16.168-16.168zM766.729 340.017l48.581 6.877c22.797 3.223 42.953 16.47 54.962 36.109l51.954 85.056c4.657 7.61 2.242 17.569-5.368 22.226-7.61 4.646-17.569 2.242-22.226-5.368l-51.954-85.056c-6.963-11.393-18.67-19.079-31.896-20.954l-48.581-6.866c-8.84-1.251-15.004-9.443-13.755-18.281 1.251-8.826 9.443-14.991 18.283-13.741z" />
</font>
</defs>
</svg>
